<svg xmlns="http://www.w3.org/2000/svg" width="169" height="184" fill="none" viewBox="0 0 169 184"><path stroke="#000" d="M164.5 90.5c.391 1.562 1.109 2.938 1.5 4.5l1.5 2-1.5 2v3l1.5-2.5.5 2-1.5 3 1 2 .5 2m-41.332-44.981a12 12 0 0 0 .719 1.062l.043.054-.019-.028a.5.5 0 0 1 .141-.65c.13.185.21.292.255.348l-.173.517.804.341.128.054.139-.02a10 10 0 0 1 2.967.053c.462.082.835.196 1.082.324.274.142.255.224.252.183l.021.327.309.11c.13.047.255.177.378.377.062.101.098.175.152.27.019.035.057.1.103.156a.6.6 0 0 0 .159.138.5.5 0 0 0 .109.045c.603.28.971.395 1.245.423v.291l.552-.056c.745-.077 1.146.04 1.415.164.151.07.264.142.418.231.142.083.325.184.548.234l.144.032.137-.05.233-.086.239-.088.07-.245.085-.298.007-.025c1.938.036 2.314.125 2.931.222v.018h.127c.23.035.505.071.902.105l.542.046v-.418c4.299-.613 7.848-.299 10.553.92 2.8 1.261 4.743 3.513 5.684 6.839l-.141.12.107.322c.264.795.351 1.128.379 1.264.013.062.01.067.01.05-.001-.027-.001.04.007.092a.6.6 0 0 0 .054.17l.036.072.099.099c.088 1.1.162 1.604.296 1.974.072.198.159.352.237.498.071.131.151.29.251.529-.014.814.291 1.395.496 1.818.224.46.285.656.165.924l-.206.463.388.167.035.656-.231-.178-.166.779-.031.145-.313.3-.154.147v.649l.247.145.254.149.29.17.266-.204q.118-.09.206-.165l.034.083.196.082q.217.09.376.128l.121.691c.049.277.096.52.163.736.134.432.338.73.688 1.086.141.586.203.981.231 1.232-.342.075-.554.158-.723.266-.154.1-.186.136-.216.162-.771-.232-1.659-.339-2.328-.391a21 21 0 0 0-.882-.049l-.155-.006c-2.699-.56-5.698-.731-8.586-.872-2.853-.139-5.588-.249-7.901-.657-.2-.21-.22-.446-.236-.78-.008-.153-.013-.442-.134-.682a.87.87 0 0 0-.333-.36 1.1 1.1 0 0 0-.476-.144l-.04-.004-.041.003c-1.142.079-1.994.371-2.588.854-.604.49-.888 1.137-.968 1.81-.12.999.209 2.085.598 2.957q-.183.028-.352.113c-.35.178-.538.499-.647.803s-.162.66-.201 1.006q-.03.268-.054.544-.023.277-.052.556c-.082.76-.215 1.439-.548 1.93-.278.41-.732.74-1.588.798-.198-.285-.353-.64-.5-1.05-.169-.467-.343-1.055-.563-1.528-.227-.487-.555-.981-1.117-1.242-.499-.232-1.095-.24-1.802-.043a6 6 0 0 1-.27-.28 1.2 1.2 0 0 0-.192-.176 1 1 0 0 0-.273-.134l-.267-.089-.214.182c-.656.554-1.47.88-2.208 1.141-.353.125-.717.245-.997.363a4 4 0 0 0-.232.107c-.195-.506-.469-.899-.812-1.194-.462-.398-1.004-.583-1.523-.679-.509-.094-1.043-.108-1.478-.13-.354-.02-.637-.045-.86-.1-.112-.322-.129-.563-.103-.743a.9.9 0 0 1 .257-.515c.293-.309.734-.462 1.07-.595l.249-.099.056-.261c.727-3.387 3.096-5.159 3.954-6.137l.051-.059.032-.07c.263-.606.27-1.1.221-1.437-.023-.164-.061-.288-.072-.33l.002.013c.001.008.006.035.007.07 0 .024 0 .123-.058.233a.48.48 0 0 1-.361.255 2 2 0 0 0-.068-.42l.378-.4c-.888-.92-2.048-.615-2.829-.26-.407.187-.78.416-1.055.585a7 7 0 0 1-.337.198l-.049.022c-1.525-.096-3.175.108-4.474.674-1.133.495-2.075 1.31-2.322 2.5h-.215l-.144.25c-.565.973-1.326 1.434-2.016 1.812-.328.18-.7.37-.976.594q-.121.098-.227.216l-.019-.022-.146-.147h-.567l-.147.15c-.486.499-.727.83-.868 1.048a23 23 0 0 1-1.043-.347c-.128-.047-.242-.09-.324-.118a1.6 1.6 0 0 0-.27-.075.7.7 0 0 0-.364.032c-.104.038-.189.098-.228.125-.046.032-.1.07-.174.116a12.6 12.6 0 0 0-1.964-1.13c-.492-.233-.825-.377-1.12-.582q.003-.068.007-.096l.005-.032.009-.064c.001-.015.006-.057 0-.11a.5.5 0 0 0-.127-.284l-.017-.028-.338-.566-.454.479c-.429.453-.671.68-.859.777l-.031.012c.168-.484.282-.947.392-1.347.138-.495.273-.902.493-1.255l.313-.171.194-.109.051-.216c.182-.778.543-1.25.853-1.434a.54.54 0 0 1 .366-.09c.092.016.211.073.339.232l.293.368.385-.269c2.165-1.51 3.735-3.597 5.045-5.845 1.301-2.23 2.386-4.696 3.514-6.91 2.246-4.404 4.725-7.947 9.798-8.306Zm33.541 27.118a.5.5 0 0 1 .267.219.5.5 0 0 1 .067.274l-.407-.016.03-.489zm4.741-.108c.025.206.032.339.034.415l-.025-.02-.059-.375-.096.017a.5.5 0 0 1 .137-.036zM49.5 29l1.5-.5 1 1.5h2.5l.5.5 1.5 1 1-.5H59"/><mask id="a" fill="#fff"><path d="M168.762 114.405c.065.221.13.221.13.244-.93 2.528-.389 1.84-.67 2.395h-.217c-.822-.488-.8-.643-1.124-.599.778.399.389.976.713 1.22.152-.267.087-.222.109-.244-.368 2.129-1.385 3.348-.995 4.524-1.06 2.439-1.86 5.144-2.228 5.543v.178l-.173.155c-.346 1.974-1.254 3.304-1.168 4.08-3.395-1.02-4.736.067-5.536-1.397-3.914.4-3.59 2.284-5.514 1.02-.108-.332 0-.243-.022-.288l-.065-.111c-1.579-.066-2.638.577-2.919.643l-.195-.066-.195-.222c-1.881.887-1.427 1.175-2.141 1.397 0 .377.195.422.152.555-2.747 2.106-2.076 1.108-2.617 2.461l-1.384 1.042c-5.147 2.218-8.888.111-10.121 2.728-4.195-2.018-7.569-4.834-9.904-7.251-3.742 1.596-2.358-.067-4.066-1.486-.952.443-.779.598-.865.621-.411 4.191-5.536 5.122-7.288 7.695-1.125-3.704-1.254-2.351-1.211-4.236l-.13-.266c-.618-.24.087-.341 0-.585-.411-.2 0-.967-.108-.945-.778.665-1.384.843-1.514.82-.843-.377-.995-.465-1.211-.598-.432-.91-.324-.644-.519-.954-.766-.978.346-.832.519-1.364l-.043-.587-.735-.311-.606.177c-1.211 1.353-.389 2.196-.757 2.484l-.281.178-.324-.067c-1.406-4.191-3.223-3.348-5.515-3.304-.8-1.486-3.46-1.486-3.028-1.486-.324-.576-1.146-.421-1.146-.399l-.151-.067c-.043-.576-.497-.754-.52-.82-.432-1.22-.323-.887-.626-1.242-3.352-1.331-5.385 2.107-6.877 1.73.216 1.907.238 1.729.173 1.951l-.152.222c-1.686.466-3.308.399-3.525.843 1.341 3.614-2.79 3.947-3.72 4.812-.821-.067-1.75-.954-2.313-.577-1.233 2.639-1.06 3.903-1.341 4.945-.39.799-1.233.045-1.34.111l-.303.111c-.909 1.375-1.558.51-1.774.954l-.195.621c-2.422 1.619-2.292-.577-3.72 0 2.315-2.151.65-4.946-1.556-5.234-1.081-2.129-.152-4.701-1.298-5.81-2.552-1.286-4.865-1.907-7.612-1.996 3.59-1.552 4-2.661 5.839-4.967.735-.577 1.752.111 1.817.089.756-.355.389-1.531.713-1.575.498 0 .692.377.8.333.303-.422.974-1.309 1.06-1.131 4-3.593 5.925-8.05 1.903-9.447 1.773-2.351-1.514-4.834-.368-6.032 12.781-1.619 21.82-1.486 27.444 7.673.843-.266 1.06-.621 1.276-.577.367.466.28.533.324.51h.086c1.103-.998 1.384-3.038 2.293-2.35l.065-.045c.064-1.131.93-1.086 1.34-.931.368-.51 1.082-.754 1.038-.71.519.2.39 0 .649.023.13 1.086.498 1.308 1.168 1.219.151.355-.043.932.022.843l.108.133c1.211.621 1.838 0 2.552-.244.216.177.173.266.237.311.433-.289 1.125-1.065 1.082-.91 1.211.643 1.081 4.125 2.097 1.974h.065c.887.754 1.125-.554 1.384-.776.368.31.692 1.131 1.211.909l.065-.089c-.865-1.596 1.73-.865 1.601-.732 3.157-2.971 7.114-4.9 9.32-7.495h.065c.065.244.043.222.065.244l.065.067c.93-.4 2.076-1.775 2.833-1.664 7.18 4.081 4.2 5.819 1.281 6.994.065 2.861-.459 3.828-2.816 5.336 0 1.419 2.238-1.733 2.671-.336.541 10.356 8.585 1.929 9.645-.621.043-.2.079-.428.101-.405 1.795-.732 2.649.449 2-1.458 2.184-.599 4.029.669 4.808-.506l.151.155c1.017.998 3.482-.421 4.736.887h.065c.13-.399-1.056-1.463-.861-1.552 2.292.532-.761-.399.796-.289h.995c-.043.178-.043.244-.022.267 2.163-.134 2.325-.946 3.731-1.478.497-6.032 10.434-5.641 11.429-2.78 1.687.51 1.384.576 1.557.621-.476.088-.605.266-.605.221 1.384-.11 1.124 0 1.6.111.151.887.497.776.519 1.043-.303.598-.432 1.064-.432 1.02h-.13c0-.488-.065-.599-.044-.643-.194.244-.064.532-.108.487-.475-.887-.346-.62-.475-.953-.065.931.346 1.264.237 1.197l-.064.333-.217-.044c-.519.199-.497.576-.519.532.498-.244.433-.288.498-.333h.129l.065.045c-.454.487-.54 1.685-.475 1.53l.151.199.627.133c.108.577.022 1.22.043 1.087l.217-.488c.302.688.302.776.367.843-.151.177-.108.199-.129.222z"/></mask><path stroke="#000" stroke-width="2" d="M168.762 114.405c.065.221.13.221.13.244-.93 2.528-.389 1.84-.67 2.395h-.217c-.822-.488-.8-.643-1.124-.599.778.399.389.976.713 1.22.152-.267.087-.222.109-.244-.368 2.129-1.385 3.348-.995 4.524-1.06 2.439-1.86 5.144-2.228 5.543v.178l-.173.155c-.346 1.974-1.254 3.304-1.168 4.08-3.395-1.02-4.736.067-5.536-1.397-3.914.4-3.59 2.284-5.514 1.02-.108-.332 0-.243-.022-.288l-.065-.111c-1.579-.066-2.638.577-2.919.643l-.195-.066-.195-.222c-1.881.887-1.427 1.175-2.141 1.397 0 .377.195.422.152.555-2.747 2.106-2.076 1.108-2.617 2.461l-1.384 1.042c-5.147 2.218-8.888.111-10.121 2.728-4.195-2.018-7.569-4.834-9.904-7.251-3.742 1.596-2.358-.067-4.066-1.486-.952.443-.779.598-.865.621-.411 4.191-5.536 5.122-7.288 7.695-1.125-3.704-1.254-2.351-1.211-4.236l-.13-.266c-.618-.24.087-.341 0-.585-.411-.2 0-.967-.108-.945-.778.665-1.384.843-1.514.82-.843-.377-.995-.465-1.211-.598-.432-.91-.324-.644-.519-.954-.766-.978.346-.832.519-1.364l-.043-.587-.735-.311-.606.177c-1.211 1.353-.389 2.196-.757 2.484l-.281.178-.324-.067c-1.406-4.191-3.223-3.348-5.515-3.304-.8-1.486-3.46-1.486-3.028-1.486-.324-.576-1.146-.421-1.146-.399l-.151-.067c-.043-.576-.497-.754-.52-.82-.432-1.22-.323-.887-.626-1.242-3.352-1.331-5.385 2.107-6.877 1.73.216 1.907.238 1.729.173 1.951l-.152.222c-1.686.466-3.308.399-3.525.843 1.341 3.614-2.79 3.947-3.72 4.812-.821-.067-1.75-.954-2.313-.577-1.233 2.639-1.06 3.903-1.341 4.945-.39.799-1.233.045-1.34.111l-.303.111c-.909 1.375-1.558.51-1.774.954l-.195.621c-2.422 1.619-2.292-.577-3.72 0 2.315-2.151.65-4.946-1.556-5.234-1.081-2.129-.152-4.701-1.298-5.81-2.552-1.286-4.865-1.907-7.612-1.996 3.59-1.552 4-2.661 5.839-4.967.735-.577 1.752.111 1.817.089.756-.355.389-1.531.713-1.575.498 0 .692.377.8.333.303-.422.974-1.309 1.06-1.131 4-3.593 5.925-8.05 1.903-9.447 1.773-2.351-1.514-4.834-.368-6.032 12.781-1.619 21.82-1.486 27.444 7.673.843-.266 1.06-.621 1.276-.577.367.466.28.533.324.51h.086c1.103-.998 1.384-3.038 2.293-2.35l.065-.045c.064-1.131.93-1.086 1.34-.931.368-.51 1.082-.754 1.038-.71.519.2.39 0 .649.023.13 1.086.498 1.308 1.168 1.219.151.355-.043.932.022.843l.108.133c1.211.621 1.838 0 2.552-.244.216.177.173.266.237.311.433-.289 1.125-1.065 1.082-.91 1.211.643 1.081 4.125 2.097 1.974h.065c.887.754 1.125-.554 1.384-.776.368.31.692 1.131 1.211.909l.065-.089c-.865-1.596 1.73-.865 1.601-.732 3.157-2.971 7.114-4.9 9.32-7.495h.065c.065.244.043.222.065.244l.065.067c.93-.4 2.076-1.775 2.833-1.664 7.18 4.081 4.2 5.819 1.281 6.994.065 2.861-.459 3.828-2.816 5.336 0 1.419 2.238-1.733 2.671-.336.541 10.356 8.585 1.929 9.645-.621.043-.2.079-.428.101-.405 1.795-.732 2.649.449 2-1.458 2.184-.599 4.029.669 4.808-.506l.151.155c1.017.998 3.482-.421 4.736.887h.065c.13-.399-1.056-1.463-.861-1.552 2.292.532-.761-.399.796-.289h.995c-.043.178-.043.244-.022.267 2.163-.134 2.325-.946 3.731-1.478.497-6.032 10.434-5.641 11.429-2.78 1.687.51 1.384.576 1.557.621-.476.088-.605.266-.605.221 1.384-.11 1.124 0 1.6.111.151.887.497.776.519 1.043-.303.598-.432 1.064-.432 1.02h-.13c0-.488-.065-.599-.044-.643-.194.244-.064.532-.108.487-.475-.887-.346-.62-.475-.953-.065.931.346 1.264.237 1.197l-.064.333-.217-.044c-.519.199-.497.576-.519.532.498-.244.433-.288.498-.333h.129l.065.045c-.454.487-.54 1.685-.475 1.53l.151.199.627.133c.108.577.022 1.22.043 1.087l.217-.488c.302.688.302.776.367.843-.151.177-.108.199-.129.222z" mask="url(#a)"/><mask id="b" fill="#fff"><path d="M50.28 31.838c-.468 1.19-1.212 2.465-1.85 2.55-.68 1.255-.404 1.148-.446 1.127l-.085.085c-.66-.064-.51.659-.617.701-1.466.702-2.125.574-2.104.765.17.255.361.277.298.277l.042.127c-1.636 2.38-1.679 1.956-2.019 2.338-1.636.361-2.189 0-2.805.51-.83-.106-1 .234-1.382.234-.34-.276-.276-.446-.361-.446h-.213c-.828 1.998-2.975 3.422-2.933 4.123.34 1.233.085 1.573.17 1.467-1.02 1.275-.871 2.507-1.849 2.699-1.466 2.571-3.677 4.144-3.55 5.993.49 1.19.426 1.297.575 1.382l.233-.128c2.253.935.872 4.485-.19 4.612.17 1 .424 1.084.34 1.233-.34.489-.383.723-.383.744l.106.297c3.167 3.358 2.465 8.757 0 10.946-1.977 2.55-1.148 2.168-2.614 2.933.234.744.191.829.085 1.148.234.319.212.297.234.34-.723 1.275-.15 2.7-.107 2.763-.85 1.424 1.17 2.359.234 2.975 1 1.467 2.466 2.742 3.57 3.082l.235.255v1.254l.085.128c.276.021.17.063.212.042l.043.213-.404.276c-.553 1.552-.106 1.297-.064 1.913l-.064.149c-.276.17-.233.127-.297.191-.043 3.953-3.04 5.27-5.377 4.208-2.785 1.17-4.187 1.998-5.888.447-.106-.34-.17-.51-.17-.51l-.127-.086c-.425.107-.298.064-.468.064l-.064-.127-.914-.51h.107c-2.614-.914-3.465.807-5.165.807a.6.6 0 0 0-.17-.297l-.191-.064c-.51.744-1.212.297-1.275.574-.234.807-.15.85-.234.914-.49-.362-.362-.234-.468-.34-.404.127-.297.255-.361.297.361.255.276.383.34.425l-.043.064c-.382 0-.318-.042-.36-.042l.084-.064c-.723.595-.595.51-.85.616-.128.531-.064.595-.106.638-.723.829-.978 1.36-1.51 1.36-.7 1.785-.297 1.169-.807 1.743-.999-.064-.829.127-1.084.234-2.678.467-3.38 2.444-4.123 3.103l-.106-.107c-1.297.553-.83 1.254-1.212 1.488l-.297.128c-.553-.51-.447-.383-.66-.553-.573.319-.934.085-1.062-.021-.956.659-.638.404-.893.85-.467.021-.361-.021-.403 0-.213.276-.085.404-.128.382l-.106.128c-5.377 1.828-10.223 2.487-10.457 6.95-.191.106-.191.085-.191.127.212.404-.064 1.084 0 .936l-.107-.128c-.02.68-.127.723-.106.85l.106.192v.106l-.127.127c.149.234.191.17.191.192l.043.127-.064.106-.191.107c0 2.848-1.743 3.91-2.21 5.908-1.319 1.318-.723 3.401-1 3.188l-.531.383v.127l.319.107-.043.148c-1.041 1.021-.786 1.892-1.53 1.934-.659.574-.298.532-.574.808h-.255c-.786.723-.489.808-.595.829l.043.446c-1.34 1.764.34 4.336.573 5.654v.106l-.106.085c-.34 3.847 3.443 3.252 1.275 5.781-.127 2.551-.233 3.528.107 4.081-1.17 1.828-.085 3.592-.49 3.826-.616.297-.467.233-.68.382-.02.786.064.914 0 1.02-.998 1.637-.743 1.105-.913 1.616.68.68-.15 2.252.127 2.337-12.603-4.909-6.673-6.461-11.286-9.16-3.081-1.403 2.53-2.997 1.233-4.569-7.927-3.21-3.252-6.823-8.969-8.374 3.826-3.826 3.06-12.136 9.84-10.351l.064-.085c-.446-.51-.977-1.084-.85-1.403 1.467-1.02.191-2.89 1.233-3.804-.085-.914-.319-1.892-.404-1.955-12.56-1.765-5.866 5.355-13.496-4.634-.085-.127-.042-.149-.042-.149.063-.127.085-.085.085-.106v-.106c-.426-.638-.277-.425-.468-.531l-.064.042-.042.064c.042.255 0 .276 0 .319l-.043.042h-.085c-.17-.085-.149-.106-.17-.106-.085-.744-.361-1.254-.446-1.275-.383-.043-.447-.064-.51-.107-.468-.871-1.934-2.486-2.89-2.061l-.277-.128c1.19-.956 1.615-.892 1.721-1.084l.234-.701-.17-.638c-.999-.914-1.7-.425-1.721-.574-.68.574-.85.659-.936.681-.446-1.616-1.679-1.446-1.615-1.935l.255-.531.66-.276.764.212c2.657-3.655 2.21-2.444 2.636-4.527-.638-1.381.085-2.444.106-2.593l-.213-.595c.68-2.486.66-2.699 1.36-3.677-.658-.85.362-1.721.128-1.594l-.17-.573c.787-1.53.51-1.36.616-1.956-2.21-4.038.553-6.248-1.849-8.225l.234-2.593c-4.824-5.993-10.074-4.484-14.58-7.12-3.804-.446-3.38 1.828-4.548 2.763-.213-.234-.213-.404-.213-.34-1.296-.468-1.657.999-1.7.786l-.34-.042c4.527-3.91 11.838-9.5 15.813-12.646.637.297.85-.191 1.126-.085 3.868.404 4.931-5.08 6.716-7.141l-.19-.362h.233c-.128-.829.319-1.169.34-1.275.234.213.383.234.34.234.042-.595.255-.468.276-.553l.17.085c3.571-2.699 3.55-4.633 3.805-7.311h.021c.191-.17.191-.255.213-.276-.064-.15-.085-.107-.085-.128v-.382l.106-.15c.446-.105.425-.084.467-.105v-.192c.32-.233.425-.212.468-.276.085-.446-.043-.404 0-.51l.212-.043-.042-.148c.149-.51.319-.66.276-.638-.255-.425-.042-.786-.063-.765.318-.234.233-.191.297-.319h.085c.765-.978 1.041-.68 1.658-.85.191-.808.531-.978.808-1.148.042-.212-.022-.297 0-.319.148-.106.212-.042.212-.063.128-.107.128-.234.149-.213l-.17-.042-.064-.107c.064-.319.128-.297.128-.319l.34-.063c.595-.447.318-.532.425-.574l-.298-.043v-.106l.234-.127h-.128c.256-.15.256-.064.277-.085.233.127.17.233.191.212.956-1.445.701-2.38.85-2.295h.106c.15-1.254-.276-2.104-.042-1.998l.446.17c-.127-.298-.064-.276-.064-.383.277-.403.723-.467.787-.51l.085.043-.064-.149c-.297-.085-.382-.127-.404-.149-.085-.489-.042-.467-.106-.552l-.234.106-.807-1.148c.701-1.169.977-1.169.913-1.381l.17.148h.107c1.063-.467 1.743-.998 1.743-1.53l-.064-.064c.042-.382.149-.318.191-.382 1.785.276.595-2.296.872-2.253.51-.255.446-.701.425-.808h-.107c-.361.34-.51.17-.616.255v-.063c.34-.702.723-.83.616-.808l-.063-.255c.297-.85.106-.68.17-.765l-.298-.234v-.106l.255-.106c.383.148.595.233.595.212.49-.319.447-.468.51-.468h-.106c2.572-2.805 2.253-5.185 2.295-6.95-.807-.552-1.509.17-1.487-.063-.34-1.084-.192-1.105-.17-1.17 1.02-.042 1.445-.212 1.466-.254.128-.34.106-.277.149-.404l.234-.106c.106-1.552-.107-1.17.425-1.87-.425-1.085-.319-1.595-.361-1.489.68-1.062.573-1.253.7-1.551l.511-.404.064-.34c-.362-.467-.66-.51-.595-.51l-.107-.234.064-.191c.276-.255.234-.191.298-.276-.085-1.106 1.679-1.063 1.594-1.87l.17.212c.064.446-.213.552-.17.595l.297-.17c.064-.616-.127-.808-.063-.871.34-.426.36-.893.34-.914h.106c0 .17.106.19.106.233l.191-.042c-.063-.531-.042-.425-.02-.616L-19.54 0l.255.149c-.022.319.085.382.042.382h-.149l-.085.085.234.277-.191.063c-.191.362-.149.553-.17.51.383-.233.468-.02.553 0-.638.213-.914.15-.85.17l-.064.68.085.15c.446.063.595.127.616.148l.085.17v.34l.128.192c.276-.128.19-.192.233-.192 0-.276-.127-.255-.106-.276.17 0 .191-.106.234-.106-.107-1.34.999-2.55.977-2.572l.234.064v.552c-.807.914-.425.723-.871 1.19-.043.532 0 .447 0 .638.149-.765.276-.595.446-.786-.064.34-.042.234-.106.34l.212.319c-.36.637-.467.85-.446.914.553-.468.361-.32.574-.447 0 .213-.085.213-.064.213.128.212.043.212.064.212-.34.34-.298.425-.34.447 1.105-.34.701-1.34.786-1.36.49.637.234.956.298.998-.255.34-.34.234-.34.277.234.722.467.659.489.786l-.15-.51.17-.361.277-.128.17.17c.404-.871.255-1.063.34-1.126l.234-.107.446-1.147h.34l.085.425c-.68 1.381-.488.999-.637 1.509h.106c.298-.489.765-.83.659-.83l.149.128c.191.68.063.68.085.83.297.297.34.212.361.254l-.085.32.128.105c.085.787-.383.83-.404 1.106 1.509.403.999-.914.892-1.17l.043-.19c.34-.383.616-.107.616-.17l.064.127-.085.127-.234.064c.128.064.213.106.234.106-.213.32 0 .383 0 .468.489-.935.383-.68.659-.935l.234.234h-.213l-.127.085c-.107.34 0 .361 0 .382.255-.085.318-.085.34-.106-.255.446-.34.425-.362.531v.277c.17-.107.255-.128.234-.128v-.149l.191-.19.043-.213h.128c.212 1.551-.32 1.083-.234 1.721 1.551-1.466.914-1.764 1.849-2.062h-.468c.447-.17.447-.042.532-.085l.127.15c.128.7-.106.7-.085.892l-.064.064h-.319c-.595.297-.51.17-.53.212-.235.702-.362 1.488-.213 1.594l-.383-.085c-.595.255-.638.638-.638.532.532 0 .404-.426.468-.447l.234.106.085.192-.043.212-.17.192c.425.085.404-.213.468-.234l.276.17c.106.595 0 .659.064.765l.191-.298c.043-.892-.149-1.19-.085-1.126.234-.425.468-.489.531-.51l.086.085c-.064.467-.234.425-.255.489.488-.277.425-.362.51-.362.637-1.232.956-1.7.722-2.04l.234-.149h.34l.276.255c.255 1.403.213 1.53.234 1.488-.212-.085-.17-.085-.234-.127-.382 1.105-1.36 1.02-1.381 1.253l.106.107c.213-.362.255-.255.276-.298h.15l.148.064c-.361.531-.319.871-.34.978-.425.212-.489.403-.489.403l.149.34c.191-.467.085-.425.106-.573l.574.233.191.383c-.34 1.764-.786 2.168.277 2.7.85-.256.616-.213.87-.383l-.084-.298c.595-.319.871-.34.808-.34l.106-.17c-.468-.956-.595-.956-.574-1.084.276-1.19.871-1.254.85-1.381h.404c.149-.957.319-.553.276-.702h.234l.17.362h.106l.064-.298c.51-.34.425-.255.616-.383l.17.128v.149l-.382.042h.425c.234-.574.213-.935.276-.914-.085 1.254.34.85.744.978l.213.043.17.297V7.8l-.425-.106.212.255c.553.085.425.021.49.042l.212.17v.107c-.702.297-.83.361-.893.446v.361h.085l.106-.297c.553 0 .723.276.702.191l-.064-.234c.319-.595.34-1.317.297-1.296l.107-.149h.34v-.149h-.128v-.127c.957-.362.914-.68 1.105-.914.468.297.255 1.148.277 1.041-1.02.447-1.276 1.573-1.02 1.956-.51 0-.51-.085-.532-.064l-.17.064c.702.425.574.743.638.765l-.32.127.256.043.106-.064c.192-.595.149-.404.128-.616l.064-.128.255-.149c.467.51.573.66.637.68l.298-.106-.298-.106-.064-.213c.192-.595.234-.425.234-.488h-.127c.085-.192.127-.32.127-.34.68.382.362.977.447 1.04.148-.403.106-.297.127-.445l.191.297c-.17.425-.34.51-.318.553.403.446.467.446.467.51-.34.297-.34.382-.34.361.446.34.468.298.489.34-.468.468-.404.319-.489.447-.17-.15-.404.063-.361 0 0 .17.149.233.127.233l.723-.403.106-.234-.127-.383c.701.34.574.255.85.319l.276-.106-.212.531c-1.127.871-1.594.914-1.51.935v.128c1.127-.255 1.084-.255 1.34-.447.276.277.34.49.382.447l.468-.043c.701-.999.318-1.488.446-1.551l.914.446c-.957.404-.574 1.127-.786 1.445l-.256.043v.106c.51-.191.596-.255.638-.234l.149.064c.234.319.127.213.17.255l.085.043c.234-.277.17-.49.212-.49l.192-.084.127.085c.043.51-.212.531-.191.595l.106.106c.277-.361.362-.297.404-.383l.064-.19c.297.106.319.34.361.36-.956.83-1.105.702-1.148.915 1.02-.15 1.02-.192 1.148-.107.489.893.723 1.637.213 1.998-.744.106-.765-.064-.893-.064-.383.51-.999.404-.914.447.234 0 .298.085.319.106.85-.574 1.36-.149 1.7-.17v.17c-.807.85-.892.574-.977.68-.957 1.36-.83.935-.893 1.105l-.531-.085-.107.106c.574.17.638 0 .787 0l.148.17c-1.083 1.233-1.615 1.318-1.997 1.212.276.212.212.51.233.467-1.509-.68-1.254.234-1.806.34l-.383-.106.34.213c1.807-.659 1.233-.319 1.446-.425l.17.574h.127c.276-.617.553-.404.595-.49l.106.192c-.318.893-.956 1.552-1.02 1.998l.107.106c.127-.701 1.02-.935.85-.871l.063.127c-.127.85-.085.638-.063.935l.191.15c-.234-.468.191-.936.149-.915-.744-1.742 1.466-2.55 1.7-2.848h-.042c.02-.531 1.02-.999.807-.935l.595-.064c1.722.702 1.106 1.807 1.297 2.19.871.637-.064 2.104.042 1.997-1.19.49-1.53.128-1.828-.19-.276-.086-.276-.17-.34-.277-.658.212-.913.68-.999.829l.787-.49.276.043c.255 1.658-.361 1.786-.467 2.147-.404.106-.404 0-.51.043-.447.446-.34.765-.383.68-.68.212-1.148.489-1.148.51l-.064.255c1.382-.957 1.276-.51 1.637-1.212l.255-.042.106.106c-1.317 2.7-1.466 2.55-1.53 2.657l.106.17c-.467 2.231-1.062 3.72-1.147 4.803l.148.298c.85.148.85.127 1 .212l.042.425c-.808.723-.829.66-.914 1.02-.68.34-.638.936-.744 1.084-.744.362-.914.234-1.02.34l-.128.298c.043.787.447 1.063.468 1.19l-.574.234.574.085.127-.255c-.722-2.253 2.53-1.36 2.36-2.976.488-.297.722-.106.68-.17.871-1.721 1.105-1.169 1.658-1.657 1.402-1.382 1.02-2.508 1.168-3.295l.213-.19c-.106-.171-.213-.235-.234-.235.765-2.359.532-1.657.702-2.508.17.298.106.532.106.574h.106l-.276-1.891c.234-.277.191-.234.255-.34.51-.213.659.106.68.042.404.595.361.85.383.808.042-.617 0-.468-.043-.68l-.17-.128c.043-.489.085-.829.17-.85 2.827-.638 3.57-1.424 3.528-1.084l.17-.276h.34l.32.255.084.467c-.765-.233-1.02.043-1.063 0l-.085.213c.574.085.383.042.553.106.106.617.064.659.127.702 0-.383.15-.596.107-.574h.127c.425.871-.127 1.232-.127 1.381h-.277c-.765.553-.595.468-.977.701l.297.128c-.531 1.934-1.254 1.488-1.806 1.105.042.425.106.34.234.468-1.254.68-2.38 1.317-2.487 1.891l.319.277c.021-.702.149-.638.127-.702l.17-.106.277.234c-.192.361-.128.255-.234.361v.106l.234.234.127-.446c.213-.043.298.021.298 0l.042-.064c0-.51.17-.51.213-.637.425.382.637.488.595.467l-.106-.276.127-.149.531-.149-.042.319.234.489c-.298.68-.66.361-.744.68v.064c.17 0 .191-.085.191-.064.106.17.128.319.106.34.702-.659.49-.425.68-.701.107.042.128.106.128.106.616-.765.319-1.382.893-1.424l-.107.17v.106c.404-.085.298-.212.362-.212l.106.106c-.128.213.021.297 0 .34.064-.191.085-.17.106-.234.107.49-.297.68-.212.702l.255-.192c0-1.785.871-2.593 1.466-3.06h.085l.49.276V26.1l-.192-.15c.085-.913.531-.934.574-1.083.977 1.53.616 1.339.765 1.466l.064-.212c-.128-.447-.192-.638-.17-.659l.085-.213c.637-.318.488-.17.87-.34.702-.063 1.064-.573 1.255-.446l.106.085.128-.191v-.51l.233-.17.192.19c.234.957 0 .766.063.851l-.212.213v.127h.128v-.127h.106v.127h.127c0-.234.128-.361.107-.34.297.191.637.085.573.106l-.382-.276v-.425l.212-.361.404-.107c-.297.298-.34.617-.361.574.489-.382.467-.148.51-.233l.234.106.085.34.34-.149.659.234.276-.107-.106-.106h-.191l-.043-.148c.17-.51.255-.34.255-.426v.34c.298-.403.149-.425.191-.446-.17-.425-.361-.319-.319-.361l.32-.34.233.106c.255.808-.064.765.021.808h.234l.149.552.212.128-.127.234c.446-.043.404-.468.467-.468.32.659.17.51.234.574l.128-.128c.127-.616-.446-1.041-.34-.977.595-.085.829.17.786.085v-.107l-.276-.042c-.489-.404-.34-.617-.425-.659h.106l.085.149c.383.212.616.042.616.085-.701-.638-1.147-.638-1.041-.659l-.213-.383c.128-.595.32-.595.34-.701v-.128c6.61-.446 11.52 4.825 16.45 5.399.043.531-.063.446-.042.51l-.148.085-.277-.128.107.426c.595.318.956.488.913.51.49-.298.553-.32.596-.362.233.255.148.32.19.32 1.914.276 2.573.084 2.402.148l.17.128c.064.68-.233.7-.212.786l.489-.149.064.106-.085.383h.106c.127-.51.383-.468.468-.574.616.468 2.38-.212 2.061 0l-.042.064h-.022l-.042.042c.127.298.106.234.127.34l.255-.127c.85.064.532.106.787.064l.085-.213c1.126.425.829.51 1.211.446.277-.956.022-.977.064-1.062-.255.127-.212.085-.319.085-.765-.617-.892-.553-.956-.638l.085-.234c2.975-.17 2.486.085 3.167.107-.83.977-.468 1.912-.596 1.785-.17-.106-.255-.106-.233-.106.042 1.275.68 1.424.914 1.7l.042.319z"/></mask><path stroke="#000" stroke-width="2" d="M50.28 31.838c-.468 1.19-1.212 2.465-1.85 2.55-.68 1.255-.404 1.148-.446 1.127l-.085.085c-.66-.064-.51.659-.617.701-1.466.702-2.125.574-2.104.765.17.255.361.277.298.277l.042.127c-1.636 2.38-1.679 1.956-2.019 2.338-1.636.361-2.189 0-2.805.51-.83-.106-1 .234-1.382.234-.34-.276-.276-.446-.361-.446h-.213c-.828 1.998-2.975 3.422-2.933 4.123.34 1.233.085 1.573.17 1.467-1.02 1.275-.871 2.507-1.849 2.699-1.466 2.571-3.677 4.144-3.55 5.993.49 1.19.426 1.297.575 1.382l.233-.128c2.253.935.872 4.485-.19 4.612.17 1 .424 1.084.34 1.233-.34.489-.383.723-.383.744l.106.297c3.167 3.358 2.465 8.757 0 10.946-1.977 2.55-1.148 2.168-2.614 2.933.234.744.191.829.085 1.148.234.319.212.297.234.34-.723 1.275-.15 2.7-.107 2.763-.85 1.424 1.17 2.359.234 2.975 1 1.467 2.466 2.742 3.57 3.082l.235.255v1.254l.085.128c.276.021.17.063.212.042l.043.213-.404.276c-.553 1.552-.106 1.297-.064 1.913l-.064.149c-.276.17-.233.127-.297.191-.043 3.953-3.04 5.27-5.377 4.208-2.785 1.17-4.187 1.998-5.888.447-.106-.34-.17-.51-.17-.51l-.127-.086c-.425.107-.298.064-.468.064l-.064-.127-.914-.51h.107c-2.614-.914-3.465.807-5.165.807a.6.6 0 0 0-.17-.297l-.191-.064c-.51.744-1.212.297-1.275.574-.234.807-.15.85-.234.914-.49-.362-.362-.234-.468-.34-.404.127-.297.255-.361.297.361.255.276.383.34.425l-.043.064c-.382 0-.318-.042-.36-.042l.084-.064c-.723.595-.595.51-.85.616-.128.531-.064.595-.106.638-.723.829-.978 1.36-1.51 1.36-.7 1.785-.297 1.169-.807 1.743-.999-.064-.829.127-1.084.234-2.678.467-3.38 2.444-4.123 3.103l-.106-.107c-1.297.553-.83 1.254-1.212 1.488l-.297.128c-.553-.51-.447-.383-.66-.553-.573.319-.934.085-1.062-.021-.956.659-.638.404-.893.85-.467.021-.361-.021-.403 0-.213.276-.085.404-.128.382l-.106.128c-5.377 1.828-10.223 2.487-10.457 6.95-.191.106-.191.085-.191.127.212.404-.064 1.084 0 .936l-.107-.128c-.02.68-.127.723-.106.85l.106.192v.106l-.127.127c.149.234.191.17.191.192l.043.127-.064.106-.191.107c0 2.848-1.743 3.91-2.21 5.908-1.319 1.318-.723 3.401-1 3.188l-.531.383v.127l.319.107-.043.148c-1.041 1.021-.786 1.892-1.53 1.934-.659.574-.298.532-.574.808h-.255c-.786.723-.489.808-.595.829l.043.446c-1.34 1.764.34 4.336.573 5.654v.106l-.106.085c-.34 3.847 3.443 3.252 1.275 5.781-.127 2.551-.233 3.528.107 4.081-1.17 1.828-.085 3.592-.49 3.826-.616.297-.467.233-.68.382-.02.786.064.914 0 1.02-.998 1.637-.743 1.105-.913 1.616.68.68-.15 2.252.127 2.337-12.603-4.909-6.673-6.461-11.286-9.16-3.081-1.403 2.53-2.997 1.233-4.569-7.927-3.21-3.252-6.823-8.969-8.374 3.826-3.826 3.06-12.136 9.84-10.351l.064-.085c-.446-.51-.977-1.084-.85-1.403 1.467-1.02.191-2.89 1.233-3.804-.085-.914-.319-1.892-.404-1.955-12.56-1.765-5.866 5.355-13.496-4.634-.085-.127-.042-.149-.042-.149.063-.127.085-.085.085-.106v-.106c-.426-.638-.277-.425-.468-.531l-.064.042-.042.064c.042.255 0 .276 0 .319l-.043.042h-.085c-.17-.085-.149-.106-.17-.106-.085-.744-.361-1.254-.446-1.275-.383-.043-.447-.064-.51-.107-.468-.871-1.934-2.486-2.89-2.061l-.277-.128c1.19-.956 1.615-.892 1.721-1.084l.234-.701-.17-.638c-.999-.914-1.7-.425-1.721-.574-.68.574-.85.659-.936.681-.446-1.616-1.679-1.446-1.615-1.935l.255-.531.66-.276.764.212c2.657-3.655 2.21-2.444 2.636-4.527-.638-1.381.085-2.444.106-2.593l-.213-.595c.68-2.486.66-2.699 1.36-3.677-.658-.85.362-1.721.128-1.594l-.17-.573c.787-1.53.51-1.36.616-1.956-2.21-4.038.553-6.248-1.849-8.225l.234-2.593c-4.824-5.993-10.074-4.484-14.58-7.12-3.804-.446-3.38 1.828-4.548 2.763-.213-.234-.213-.404-.213-.34-1.296-.468-1.657.999-1.7.786l-.34-.042c4.527-3.91 11.838-9.5 15.813-12.646.637.297.85-.191 1.126-.085 3.868.404 4.931-5.08 6.716-7.141l-.19-.362h.233c-.128-.829.319-1.169.34-1.275.234.213.383.234.34.234.042-.595.255-.468.276-.553l.17.085c3.571-2.699 3.55-4.633 3.805-7.311h.021c.191-.17.191-.255.213-.276-.064-.15-.085-.107-.085-.128v-.382l.106-.15c.446-.105.425-.084.467-.105v-.192c.32-.233.425-.212.468-.276.085-.446-.043-.404 0-.51l.212-.043-.042-.148c.149-.51.319-.66.276-.638-.255-.425-.042-.786-.063-.765.318-.234.233-.191.297-.319h.085c.765-.978 1.041-.68 1.658-.85.191-.808.531-.978.808-1.148.042-.212-.022-.297 0-.319.148-.106.212-.042.212-.063.128-.107.128-.234.149-.213l-.17-.042-.064-.107c.064-.319.128-.297.128-.319l.34-.063c.595-.447.318-.532.425-.574l-.298-.043v-.106l.234-.127h-.128c.256-.15.256-.064.277-.085.233.127.17.233.191.212.956-1.445.701-2.38.85-2.295h.106c.15-1.254-.276-2.104-.042-1.998l.446.17c-.127-.298-.064-.276-.064-.383.277-.403.723-.467.787-.51l.085.043-.064-.149c-.297-.085-.382-.127-.404-.149-.085-.489-.042-.467-.106-.552l-.234.106-.807-1.148c.701-1.169.977-1.169.913-1.381l.17.148h.107c1.063-.467 1.743-.998 1.743-1.53l-.064-.064c.042-.382.149-.318.191-.382 1.785.276.595-2.296.872-2.253.51-.255.446-.701.425-.808h-.107c-.361.34-.51.17-.616.255v-.063c.34-.702.723-.83.616-.808l-.063-.255c.297-.85.106-.68.17-.765l-.298-.234v-.106l.255-.106c.383.148.595.233.595.212.49-.319.447-.468.51-.468h-.106c2.572-2.805 2.253-5.185 2.295-6.95-.807-.552-1.509.17-1.487-.063-.34-1.084-.192-1.105-.17-1.17 1.02-.042 1.445-.212 1.466-.254.128-.34.106-.277.149-.404l.234-.106c.106-1.552-.107-1.17.425-1.87-.425-1.085-.319-1.595-.361-1.489.68-1.062.573-1.253.7-1.551l.511-.404.064-.34c-.362-.467-.66-.51-.595-.51l-.107-.234.064-.191c.276-.255.234-.191.298-.276-.085-1.106 1.679-1.063 1.594-1.87l.17.212c.064.446-.213.552-.17.595l.297-.17c.064-.616-.127-.808-.063-.871.34-.426.36-.893.34-.914h.106c0 .17.106.19.106.233l.191-.042c-.063-.531-.042-.425-.02-.616L-19.54 0l.255.149c-.022.319.085.382.042.382h-.149l-.085.085.234.277-.191.063c-.191.362-.149.553-.17.51.383-.233.468-.02.553 0-.638.213-.914.15-.85.17l-.064.68.085.15c.446.063.595.127.616.148l.085.17v.34l.128.192c.276-.128.19-.192.233-.192 0-.276-.127-.255-.106-.276.17 0 .191-.106.234-.106-.107-1.34.999-2.55.977-2.572l.234.064v.552c-.807.914-.425.723-.871 1.19-.043.532 0 .447 0 .638.149-.765.276-.595.446-.786-.064.34-.042.234-.106.34l.212.319c-.36.637-.467.85-.446.914.553-.468.361-.32.574-.447 0 .213-.085.213-.064.213.128.212.043.212.064.212-.34.34-.298.425-.34.447 1.105-.34.701-1.34.786-1.36.49.637.234.956.298.998-.255.34-.34.234-.34.277.234.722.467.659.489.786l-.15-.51.17-.361.277-.128.17.17c.404-.871.255-1.063.34-1.126l.234-.107.446-1.147h.34l.085.425c-.68 1.381-.488.999-.637 1.509h.106c.298-.489.765-.83.659-.83l.149.128c.191.68.063.68.085.83.297.297.34.212.361.254l-.085.32.128.105c.085.787-.383.83-.404 1.106 1.509.403.999-.914.892-1.17l.043-.19c.34-.383.616-.107.616-.17l.064.127-.085.127-.234.064c.128.064.213.106.234.106-.213.32 0 .383 0 .468.489-.935.383-.68.659-.935l.234.234h-.213l-.127.085c-.107.34 0 .361 0 .382.255-.085.318-.085.34-.106-.255.446-.34.425-.362.531v.277c.17-.107.255-.128.234-.128v-.149l.191-.19.043-.213h.128c.212 1.551-.32 1.083-.234 1.721 1.551-1.466.914-1.764 1.849-2.062h-.468c.447-.17.447-.042.532-.085l.127.15c.128.7-.106.7-.085.892l-.064.064h-.319c-.595.297-.51.17-.53.212-.235.702-.362 1.488-.213 1.594l-.383-.085c-.595.255-.638.638-.638.532.532 0 .404-.426.468-.447l.234.106.085.192-.043.212-.17.192c.425.085.404-.213.468-.234l.276.17c.106.595 0 .659.064.765l.191-.298c.043-.892-.149-1.19-.085-1.126.234-.425.468-.489.531-.51l.086.085c-.064.467-.234.425-.255.489.488-.277.425-.362.51-.362.637-1.232.956-1.7.722-2.04l.234-.149h.34l.276.255c.255 1.403.213 1.53.234 1.488-.212-.085-.17-.085-.234-.127-.382 1.105-1.36 1.02-1.381 1.253l.106.107c.213-.362.255-.255.276-.298h.15l.148.064c-.361.531-.319.871-.34.978-.425.212-.489.403-.489.403l.149.34c.191-.467.085-.425.106-.573l.574.233.191.383c-.34 1.764-.786 2.168.277 2.7.85-.256.616-.213.87-.383l-.084-.298c.595-.319.871-.34.808-.34l.106-.17c-.468-.956-.595-.956-.574-1.084.276-1.19.871-1.254.85-1.381h.404c.149-.957.319-.553.276-.702h.234l.17.362h.106l.064-.298c.51-.34.425-.255.616-.383l.17.128v.149l-.382.042h.425c.234-.574.213-.935.276-.914-.085 1.254.34.85.744.978l.213.043.17.297V7.8l-.425-.106.212.255c.553.085.425.021.49.042l.212.17v.107c-.702.297-.83.361-.893.446v.361h.085l.106-.297c.553 0 .723.276.702.191l-.064-.234c.319-.595.34-1.317.297-1.296l.107-.149h.34v-.149h-.128v-.127c.957-.362.914-.68 1.105-.914.468.297.255 1.148.277 1.041-1.02.447-1.276 1.573-1.02 1.956-.51 0-.51-.085-.532-.064l-.17.064c.702.425.574.743.638.765l-.32.127.256.043.106-.064c.192-.595.149-.404.128-.616l.064-.128.255-.149c.467.51.573.66.637.68l.298-.106-.298-.106-.064-.213c.192-.595.234-.425.234-.488h-.127c.085-.192.127-.32.127-.34.68.382.362.977.447 1.04.148-.403.106-.297.127-.445l.191.297c-.17.425-.34.51-.318.553.403.446.467.446.467.51-.34.297-.34.382-.34.361.446.34.468.298.489.34-.468.468-.404.319-.489.447-.17-.15-.404.063-.361 0 0 .17.149.233.127.233l.723-.403.106-.234-.127-.383c.701.34.574.255.85.319l.276-.106-.212.531c-1.127.871-1.594.914-1.51.935v.128c1.127-.255 1.084-.255 1.34-.447.276.277.34.49.382.447l.468-.043c.701-.999.318-1.488.446-1.551l.914.446c-.957.404-.574 1.127-.786 1.445l-.256.043v.106c.51-.191.596-.255.638-.234l.149.064c.234.319.127.213.17.255l.085.043c.234-.277.17-.49.212-.49l.192-.084.127.085c.043.51-.212.531-.191.595l.106.106c.277-.361.362-.297.404-.383l.064-.19c.297.106.319.34.361.36-.956.83-1.105.702-1.148.915 1.02-.15 1.02-.192 1.148-.107.489.893.723 1.637.213 1.998-.744.106-.765-.064-.893-.064-.383.51-.999.404-.914.447.234 0 .298.085.319.106.85-.574 1.36-.149 1.7-.17v.17c-.807.85-.892.574-.977.68-.957 1.36-.83.935-.893 1.105l-.531-.085-.107.106c.574.17.638 0 .787 0l.148.17c-1.083 1.233-1.615 1.318-1.997 1.212.276.212.212.51.233.467-1.509-.68-1.254.234-1.806.34l-.383-.106.34.213c1.807-.659 1.233-.319 1.446-.425l.17.574h.127c.276-.617.553-.404.595-.49l.106.192c-.318.893-.956 1.552-1.02 1.998l.107.106c.127-.701 1.02-.935.85-.871l.063.127c-.127.85-.085.638-.063.935l.191.15c-.234-.468.191-.936.149-.915-.744-1.742 1.466-2.55 1.7-2.848h-.042c.02-.531 1.02-.999.807-.935l.595-.064c1.722.702 1.106 1.807 1.297 2.19.871.637-.064 2.104.042 1.997-1.19.49-1.53.128-1.828-.19-.276-.086-.276-.17-.34-.277-.658.212-.913.68-.999.829l.787-.49.276.043c.255 1.658-.361 1.786-.467 2.147-.404.106-.404 0-.51.043-.447.446-.34.765-.383.68-.68.212-1.148.489-1.148.51l-.064.255c1.382-.957 1.276-.51 1.637-1.212l.255-.042.106.106c-1.317 2.7-1.466 2.55-1.53 2.657l.106.17c-.467 2.231-1.062 3.72-1.147 4.803l.148.298c.85.148.85.127 1 .212l.042.425c-.808.723-.829.66-.914 1.02-.68.34-.638.936-.744 1.084-.744.362-.914.234-1.02.34l-.128.298c.043.787.447 1.063.468 1.19l-.574.234.574.085.127-.255c-.722-2.253 2.53-1.36 2.36-2.976.488-.297.722-.106.68-.17.871-1.721 1.105-1.169 1.658-1.657 1.402-1.382 1.02-2.508 1.168-3.295l.213-.19c-.106-.171-.213-.235-.234-.235.765-2.359.532-1.657.702-2.508.17.298.106.532.106.574h.106l-.276-1.891c.234-.277.191-.234.255-.34.51-.213.659.106.68.042.404.595.361.85.383.808.042-.617 0-.468-.043-.68l-.17-.128c.043-.489.085-.829.17-.85 2.827-.638 3.57-1.424 3.528-1.084l.17-.276h.34l.32.255.084.467c-.765-.233-1.02.043-1.063 0l-.085.213c.574.085.383.042.553.106.106.617.064.659.127.702 0-.383.15-.596.107-.574h.127c.425.871-.127 1.232-.127 1.381h-.277c-.765.553-.595.468-.977.701l.297.128c-.531 1.934-1.254 1.488-1.806 1.105.042.425.106.34.234.468-1.254.68-2.38 1.317-2.487 1.891l.319.277c.021-.702.149-.638.127-.702l.17-.106.277.234c-.192.361-.128.255-.234.361v.106l.234.234.127-.446c.213-.043.298.021.298 0l.042-.064c0-.51.17-.51.213-.637.425.382.637.488.595.467l-.106-.276.127-.149.531-.149-.042.319.234.489c-.298.68-.66.361-.744.68v.064c.17 0 .191-.085.191-.064.106.17.128.319.106.34.702-.659.49-.425.68-.701.107.042.128.106.128.106.616-.765.319-1.382.893-1.424l-.107.17v.106c.404-.085.298-.212.362-.212l.106.106c-.128.213.021.297 0 .34.064-.191.085-.17.106-.234.107.49-.297.68-.212.702l.255-.192c0-1.785.871-2.593 1.466-3.06h.085l.49.276V26.1l-.192-.15c.085-.913.531-.934.574-1.083.977 1.53.616 1.339.765 1.466l.064-.212c-.128-.447-.192-.638-.17-.659l.085-.213c.637-.318.488-.17.87-.34.702-.063 1.064-.573 1.255-.446l.106.085.128-.191v-.51l.233-.17.192.19c.234.957 0 .766.063.851l-.212.213v.127h.128v-.127h.106v.127h.127c0-.234.128-.361.107-.34.297.191.637.085.573.106l-.382-.276v-.425l.212-.361.404-.107c-.297.298-.34.617-.361.574.489-.382.467-.148.51-.233l.234.106.085.34.34-.149.659.234.276-.107-.106-.106h-.191l-.043-.148c.17-.51.255-.34.255-.426v.34c.298-.403.149-.425.191-.446-.17-.425-.361-.319-.319-.361l.32-.34.233.106c.255.808-.064.765.021.808h.234l.149.552.212.128-.127.234c.446-.043.404-.468.467-.468.32.659.17.51.234.574l.128-.128c.127-.616-.446-1.041-.34-.977.595-.085.829.17.786.085v-.107l-.276-.042c-.489-.404-.34-.617-.425-.659h.106l.085.149c.383.212.616.042.616.085-.701-.638-1.147-.638-1.041-.659l-.213-.383c.128-.595.32-.595.34-.701v-.128c6.61-.446 11.52 4.825 16.45 5.399.043.531-.063.446-.042.51l-.148.085-.277-.128.107.426c.595.318.956.488.913.51.49-.298.553-.32.596-.362.233.255.148.32.19.32 1.914.276 2.573.084 2.402.148l.17.128c.064.68-.233.7-.212.786l.489-.149.064.106-.085.383h.106c.127-.51.383-.468.468-.574.616.468 2.38-.212 2.061 0l-.042.064h-.022l-.042.042c.127.298.106.234.127.34l.255-.127c.85.064.532.106.787.064l.085-.213c1.126.425.829.51 1.211.446.277-.956.022-.977.064-1.062-.255.127-.212.085-.319.085-.765-.617-.892-.553-.956-.638l.085-.234c2.975-.17 2.486.085 3.167.107-.83.977-.468 1.912-.596 1.785-.17-.106-.255-.106-.233-.106.042 1.275.68 1.424.914 1.7l.042.319z" mask="url(#b)"/><path fill="#735C31" stroke="#000" d="M71.915 29.54c1.963.34 3.183.355 4.017.393.44.02.73.047.968.114.22.062.412.164.631.364l.215.197.277-.09.197-.064.188-.06.018-.035.01.005.185-.054.1-.03c3.035.57 4.304 1.782 5.683 2.806l-.157.246.506.246a1.8 1.8 0 0 0 .62.174l.05.004h.883l-.055-.098q.1.038.17.06c.103.032.205.054.32.055h.012c.97.954 1.953 1.54 2.788 1.874.706.282 1.34.396 1.778.383.256.186.614.406.889.57.186.11.34.202.441.264l.067.041a.5.5 0 0 1-.12-.141c-.015-.028-.121-.219-.018-.448l.032-.058c.144.085.267.158.342.206l-.235.457c1.062.786 1.621 1.134 2.025 1.402.383.255.629.439 1.106.923l.186.19.262-.05c.778-.144 1.296.217 1.67.699.19.244.333.508.433.725q.074.165.12.279l.041.101c.005.011.032.08.072.137l.198.29.34-.089.086-.022c.321.236.694.42.976.539.157.066.298.117.406.152.798 1.029 1.968 1.724 3.016 2.177 1.108.479 2.139.713 2.592.782l.307.047.066-.096c1.748 2.32 3.711 4.814 5.693 6.871 2.036 2.113 4.167 3.844 6.158 4.386.475 1.003.85 1.695 1.176 2.179.352.521.665.83 1.009 1.026.317.181.663.255.901.33.258.08.561.198.975.493l.222.157.253-.1a3 3 0 0 0 .304-.139c1.382.524 2.204.806 2.759 1.047.417.181.617.313.75.465l.069.153.39.876c-6.315 1.164-9.261 5.584-11.499 10.066-1.17 2.345-2.12 4.64-3.282 6.638-1.086 1.867-2.305 3.368-3.935 4.255-.359-.285-.738-.432-1.134-.392-.486.049-.842.362-1.081.661-.245.306-.43.671-.562.969-.067.152-.124.293-.17.407l-.037.09-.279.151-.112.06-.07.106c-.473.722-.653 1.374-.784 1.929-.135.573-.206.958-.427 1.32l-.122.2.076.222.044.128.04.118.092.086c.248.23.546.294.803.282l.035-.004c-2.168 5.375-3.276 8.015-2.184 12.269l.05.192.167.107c.419.265.72.545 1.117.844.278.208.61.426.997.512.225.58.105 1.143-.176 1.645-.328.584-.842 1.021-1.139 1.178l-.393.207.161.415c.112.291.096.477.052.605-.047.141-.15.276-.314.425a5 5 0 0 1-.267.22c-.091.071-.2.153-.295.233-.163.137-.435.382-.492.741-.255.107-.439.242-.55.43a1.4 1.4 0 0 0-.605-.006 1.17 1.17 0 0 0-.673.425 1.8 1.8 0 0 0-.278.532 1.3 1.3 0 0 0-.822.319c-.308.253-.542.624-.722.944-.093.165-.18.334-.258.484q-.09.171-.165.306a.6.6 0 0 0-.241-.185l-.144-.092-.223.068a4 4 0 0 0-.938.42c-3.543-5.508-8.285-7.28-12.933-7.741-2.359-.235-4.697-.133-6.83-.02-2.015.107-3.821.217-5.343.091-.75-2.142-.248-3.841.472-5.278.396-.79.806-1.412 1.177-2.09.338-.618.645-1.29.587-1.95l-.03-.327-.309-.103-.056-.033c-.062-.05-.143-.157-.225-.344-.048-.108-.082-.21-.113-.299-.011-.034-.03-.094-.052-.142-.004-.008-.04-.092-.112-.166a.5.5 0 0 0-.366-.152H72.4c-1.713-.1-2.814-.67-3.568-1.48-.773-.83-1.227-1.962-1.543-3.254-.32-1.307-.477-2.671-.719-4.02-.225-1.258-.525-2.495-1.13-3.445a65 65 0 0 1-.262-3.86c-.05-1.147-.084-2.158-.178-3.027-.188-1.742-.63-3.057-2.041-3.965-.31-.234-.451-.467-.517-.678-.068-.222-.067-.463-.028-.729q.03-.198.078-.402c.03-.13.065-.278.09-.412.025-.135.048-.29.041-.446a.96.96 0 0 0-.168-.52l-.014-.018-.131-.175a3.6 3.6 0 0 1-.484-.872c-.037-.098-.092-.257-.14-.365a1.2 1.2 0 0 0-.2-.311c-.596-1.41-.962-2.707-1.261-3.917-.296-1.194-.537-2.345-.87-3.392-.042-1.006.49-1.736 1.177-2.43.175-.177.352-.344.532-.514.176-.168.354-.34.515-.513.312-.334.625-.735.719-1.216l.031-.16-.07-.148a298 298 0 0 0-1.973-4.11c-.601-1.234-1.14-2.337-1.613-3.343-.947-2.02-1.606-3.62-1.935-5.07-.325-1.434-.326-2.72.051-4.107.353-1.298 1.044-2.707 2.15-4.427l.21.137.188-.647c.185-.64.044-1.089-.154-1.407a2 2 0 0 0-.112-.16l.09-.19-.294-.204c1.102-.236 1.962.268 2.376.581l.134.102h.852l-.08-.57-.015-.086c.658.015 1.14-.027 1.534-.07.558-.063.83-.105 1.182-.03l.398.085.117-.267.093-.012.01.026.12.328h.605l.124-.079c1.108-.713 2.202-.816 3.198-.874.48-.028.987-.046 1.419-.142.352-.078.698-.217.981-.483Zm25.84 83.42.018.006-.028-.008zm25.891-52.938-.007.007.031-.05zm-23.181-18.423c.132.055.248.097.332.124l-.275.306a.48.48 0 0 1-.057-.43Z"/><path stroke="#000" d="M113.649 141.56c1.277.359 1.725.573 1.975.729.222.138.426.342.953.573l.126.299.149.352.377-.05c.974-.129 1.367-.064 1.514-.019.063.02.086.036.132.064a1 1 0 0 0 .159.072c.852.818 1.547 1.278 2.193 1.498.642.219 1.188.181 1.694.101 1.59.456 2.379.851 2.887 1.238.258.197.457.401.659.634.188.216.428.518.688.804l.182.2.265-.041c.789-.122 1.401.228 1.927.652q.195.16.37.315c.114.1.234.205.345.29.105.081.246.178.407.23a.7.7 0 0 0 .591-.062c.19-.088.306-.129.37-.15.298.228.384.559.402.975q.006.178.002.362c-.003.117-.007.249-.004.366.002.116.011.254.044.385.032.131.102.31.269.444l.074.059.091.028c.76.236 1.025.468 1.162.645.078.1.132.204.209.353.074.143.169.328.317.515l.121.153.194.03c.692.108 1.16.359 1.525.589.163.104.373.249.528.337.161.092.401.209.683.183l.165-.015.123-.11c.231-.207.376-.292.446-.324l.021.006c.725.63.806.986.812 1.191.004.141-.024.263-.063.472-.035.19-.078.452-.017.748l.03.15.11.107.182.177.15.145.207-.003c.719-.012 1.188-.099 1.483-.181.049-.013.091-.031.129-.043.185.09.277.253.329.446.024.088.034.172.042.244-6.702 1.739-10.093 6.538-12.392 10.256l-.111-.033-.136-.263h-.452l-.017-.037q-.024-.062-.025-.073l-.001-.007-.002-.006-.006-.025a.4.4 0 0 0-.044-.108.48.48 0 0 0-.299-.241c-.48-.236-.736-.344-.892-.388l-.075-.11h-.58l-.146.141-.114.111-.083.081-.039.109c-.161.449-.019.805.138 1.034.042.062.092.118.128.16v.359h.67l.054.121.068.155.084.188.193.076.227.089.087.034h.242l.023.035.019.03c-.024.271-.02.478.031.652a7 7 0 0 1-.45.249c-.072.035-.178.085-.231.112a.8.8 0 0 0-.237.172l-.001-.001a3 3 0 0 0-.244.287l-.055-.048-.027-.31-.014-.157-.102-.12-.204-.243-.665-.79-.123.597-.028-.029-.669-.701-.184.951-.068.354-.039.202.093.138-.018-.002v.97l.023.025a1.7 1.7 0 0 0-.436.387c-.233.289-.386.641-.49.939l-.039.117-.281-.052.027-.026-.182-.177-.916-.891.069 1.276c.021.408.142.737.338.993.194.252.435.401.647.49.092.04.183.068.264.09l-.028.086c-.401.363-.658.468-.798.505-.083.023-.137.027-.228.039-.039.005-.313.025-.486.259l-.041.056c-.687.262-1.08.2-1.293.127-.141-.049-.234-.111-.35-.18-.036-.021-.149-.092-.278-.118a.57.57 0 0 0-.552.186l-.029.038c-.253.342-.376.522-.441.617-.589-.14-.998-.317-1.301-.505a3 3 0 0 1-.745-.67c-.383-.467-.774-1.177-1.685-1.626l-.238-.117-.23.13-.115.068c-.642-.165-.859-.342-.916-.431-.016-.025-.07-.108.11-.393l.058-.091.014-.107c.235-1.661-.549-2.931-1.398-4-.213-.268-.436-.53-.652-.783a29 29 0 0 1-.622-.75c-.394-.497-.712-.969-.901-1.457l-.022-.058-.036-.049c-.541-.772-.821-1.346-.929-1.765-.105-.407-.038-.616.05-.739.101-.144.309-.283.686-.389.371-.104.841-.159 1.382-.186.539-.026 1.118-.023 1.706-.023.581 0 1.173-.003 1.707-.044.527-.04 1.045-.12 1.464-.296.429-.18.82-.492.943-1.018l.021-.089-.012-.091c-.147-1.112-.125-2.305-.057-3.536.068-1.212.184-2.492.211-3.692.054-2.383-.226-4.743-2.086-6.338l-.064-.079-.068-.083-.097-.047-.153-.081c-.743-.416-1.121-1.023-1.346-1.573-.123-.298-.197-.57-.265-.802a4 4 0 0 0-.081-.252 9 9 0 0 0 .52-1.07l.037-.094.012-.036.001-.002.001-.001.094-.258-.168-.219-.068-.088-.109-.142-.173-.04-.323-.084q-.074-.023-.124-.043c.009-.158.072-.337.189-.528.084-.137.181-.259.265-.353Zm1.365 32.222.039.005a.495.495 0 0 1 .426.491l-.127-.077-.142-.074c-.263.149-.23.155-.228.155v-.123l.002-.377zm10.778-1.25-.174.351c-.203.423-.334.711-.456.964l-.016.031-.192.043-.021-.085-.015-.037-.008-.017-.004-.009-.003-.005v-.001l-.083.042.001-.002.081-.041-.024-.048c.333-.53.578-.912.805-1.203l.052-.001.008-.033zm.944-5.762-.056.004c.004 0 .022-.003.045-.004zm15.082-9.421c.025.091.038.178.048.252q-.17.04-.34.085l-.089-.031a.4.4 0 0 1 .048-.096.5.5 0 0 1 .333-.21Z"/><mask id="c" fill="#fff"><path d="M125.064 174.438c-3.932 7.609-7.46 15.048-11.583 20.213-4.251 4.378-4.039 5.228-7.694 6.503l-.383-.085-.085-.212c.808-1.573.34-1.063.68-1.467l.192-.042.148.34c-.063-.723-.276-.787-.233-.914l.255-.51c-.17-.383-.234-.298-.277-.383 0-.319-.255-.382-.212-.425.149-1.063-.191-1.53-.085-1.381-.723.127-1.02-.34-1.105-.362l-.532.192-.34-.192c-.425-.829-.34-1.147-.382-1.084l-.128-.085c-.574.022-.616-.382-.637-.34 0-.446.085-.744.063-.722h-.106c-.786 1.211-.298 1.36-.489 1.827-.51.404-.404.851-.404.787l.213.212c-.914 1.743-.553 1.042-1.275 1.743h-.17c-.893-.425-1.02-2.189-.957-2.295.404-.489.595-.51.553-.532l-.234-.34h-.106l.085.277c-.638.425-.68.765-.787 1.041l-.212.085c.51.85.361.829.807.999l.107.17c-.213.808.637.893.68 1.063.319-.298.276-.234.404-.319h.106c.149.319.191.383.234.425.467-.34.914 0 .999 0-.659 1.573-1.318 3.273-2.763 3.358-.872 1.169 1.891 1.254 1.381 1.275l-.064.17c-1.955.766-2.635 2.147-2.678 2.955.32.68.213.552.277.807l-.17.128c-.702-.702-1.212-.106-1.254-.234.106-.34 0-.531 0-.595-.723 1.913-.404 1.636-.34 2.359-.765.51-.32 1.998-.404 1.87l-.128.255-.404.107v.106l.49-.043.148-.233c-.234-1.509.191-1.212.298-1.637l.361-.17.425.213c.213.552.255.616.319.765.255 1.764-.106 4.123.212 5.058l-.148.064c-1.17-.213-.723-1.445-1.53-1.7-.128.042-.107 0-.128 0l-.085-.489c-.34-.17-.744 0-.68-.064-.32.361-.234.489-.277.468l.086.127.467-.361c.298.34 0 .531 0 .574 1.658.701.893 1.169 1.403 1.424l.574.191.063.191-.085.192-.148.085c-.872.021-.83-.234-.978-.234l-.128.467c.17.553.17.765.192.723 1.169.404 1.254.999 1.147 1.615.32.51.234.404.255.702-1.041.297-.871.063-.998.106l-.234-.276-.277.297v.17l.17.234c-.382.276-.212.68-.233.701.276.362.467.298.488.362l.107.233h.106c-.531-.892-.383-.765-.489-1.126.83-.298 1.913-.765 1.785-.744-.063-.361 0-.489-.042-.51-.255-.106-.17-.17-.213-.17.085-.553.15-.489.107-.595-.128-.085-.085-.085-.107-.106l.064-.107c.191-.085.255-.042.255-.063l.043-.064c0-.489-.468-.34-.468-.425.106-.17.128-.255.128-.234l-.277.064-.042-.149c.212-.723.765-.659.914-.723l.106.149c0 4.74-.978 4.782-1.254 7.715l.106.234-.127.17c-.383 2.933-1.318 5.569-.744 6.801l.234.234.042.213c-.361.106-.276.148-.319.148v.192l.085.106c.362-.064.362-.064.426-.043.467 7.715.616 12.731 2.699 17.96-1.892 3.91-1.828 7.842-3.23 10.095-1.234 8.204-4.23 16.769-1.404 21.679-1.126 2.168-2.274 2.062-2.316 3.273-4.187.957-6.058 6.079-6.674 8.013-4.76-1.19-13.156-12.901-13.836-15.834-.298.085-.489.297-.616.17-.192-.532.595-.935.276-1.127l-.085-.042c-.701.021-.787.68-.914.829-1.063-1.764.786-8.693 1.7-9.416 7.227 1.764.68-5.696 5.632-6.121 3.231-4.569 3.295-2.656 4.294-6.291.34-.085.276-.149.319-.149.212-1.147-.957-1.785-1.19-2.529-2.168.192-2.338-2.316-3.954-1.806l-.064-.043c0-.319 0-.361-.042-.382-.468-.192-.425-.107-.531-.234-.404-1.275-3.996-.553-4.464-1.467-3.847-.489-7.715-2.72-11.455.128-1.36-.85-2.508-.68-2.764-.68-.53-2.338-.552-4.145-.637-4.272-3.146-2.997-5.696-5.144-7.396-6.674-2.55 1.233-4.697 1.764-6.291-.064-6.568-.616-9.884-5.951-14.58-7.672-7.737.595-17.535 4.569-12.498-5.463-1.998-1.02-3.953-1.19-5.696-1.168-.637-.171-1.232-.404-1.445-.659-.234.063-.276.255-.34.297-3.847-.382-8.246 3.72-10.032 4.527-7.247 6.249-13.985 8.736-20.743 12.561.616-2.72 2.168-4.484.85-6.525 6.482-8.416-8.672-16.28-3.21-24.123 2.742-2.869 2.87-3.273.595-4.357.383-6.057 3.762-3.209.532-5.759-4.017-1.765 1.381-5.888-.255-6.483-10.797-6.227 8.523-11.371-1.637-11.137-1.339-3.145 3.762-2.019 2.955-4.081-14.368-3.145-4.889-9.946-2.445-12.05-1.126-1.467-.34-1.233-1.211-1.637-.17-.149-.085-.17-.128-.17 21.594-20.871 11.35 14.474 29.5-2.508 8.885-.297 9.82-2.487 12.944-7.609 5.484-13.177-7.906-10.329 5.547-14.941 2.445 4.973 5.654-.978 7.184 2.253 3.443 2.486 6.079 1.551 8.97 1.041.212-.149.127-.531.17-.51 1.976-2.848 6.099-3.209 7.714-4.208 3.103.744 5.505-1.148 4.527-3.762 3.23-.255 5.484-2.04 6.313-4.825 4.527 0 4.867.999 7.481 1.913 1.084 8.353 6.185 6.228 2.806 10.585 1.147.021 3.039.914 3.655 0l.191-.596c1.297-.148 1.68-.807 1.743-.913l.298-.107c.807.425 1.084.213 1.317-.106.362-2.253.85-4.251 1.318-4.74 1.594-.425 1.297.702 2.274.553 3.23-1.466 4.506-2.189 3.656-4.612 1.977-.765 2.614-.51 3.464-.808l.15-.212c-.065-1.828-.298-1.722-.17-1.87 3.591-.914 4.994-2.87 6.758-1.658.68.765.552 1.317.616 1.19.553.319.404.659.51.786l.149.064c.956-.149.808.17 1.126.383 2.848.531 2.147.595 2.976 1.424 2.827-1.339 4.846 1.615 5.42 3.166l.318.064.277-.17c.064-1.636.51-2.21.744-2.38l.595-.17.722.297.319.468c-.319 1.19-.956 1.424-.786 1.403.467.637.51.999.51.914.637.34 1.126.552 1.19.573 1.169-.17 1.169-.744 1.488-.786.361.255.425.425.552.425.128.701-.425.808-.446 1.041l.128.256c.318 4.357 2.274 5.972 4.93 6.546 0 .701.256.722.256.829-.638.552-.851 1.317-.723 1.7.446.319.701.17.744.276l.064.085c-.404.935-.404.999-.638 1.318 1.063 2.444 1.084 2.869 2.062 3.039l.085.106c7.991 22.869-10.925 9.118-4.804 17.45 1.254 2.571 3.741 4.251 3.316 6.482-.978 1.233 1.105 1.339 1.169 1.552h.106c.213-.192.191-.107.213-.149 1.254 1.063 2.359 2.614 3.719 2.763h.149c.467-.404.595-.872.616-.808 1.934.872 2.381-.297 2.529-.064 1.127.171 1.509-.765 1.786-.998l.276-.085z"/></mask><path stroke="#000" stroke-width="2" d="M125.064 174.438c-3.932 7.609-7.46 15.048-11.583 20.213-4.251 4.378-4.039 5.228-7.694 6.503l-.383-.085-.085-.212c.808-1.573.34-1.063.68-1.467l.192-.042.148.34c-.063-.723-.276-.787-.233-.914l.255-.51c-.17-.383-.234-.298-.277-.383 0-.319-.255-.382-.212-.425.149-1.063-.191-1.53-.085-1.381-.723.127-1.02-.34-1.105-.362l-.532.192-.34-.192c-.425-.829-.34-1.147-.382-1.084l-.128-.085c-.574.022-.616-.382-.637-.34 0-.446.085-.744.063-.722h-.106c-.786 1.211-.298 1.36-.489 1.827-.51.404-.404.851-.404.787l.213.212c-.914 1.743-.553 1.042-1.275 1.743h-.17c-.893-.425-1.02-2.189-.957-2.295.404-.489.595-.51.553-.532l-.234-.34h-.106l.085.277c-.638.425-.68.765-.787 1.041l-.212.085c.51.85.361.829.807.999l.107.17c-.213.808.637.893.68 1.063.319-.298.276-.234.404-.319h.106c.149.319.191.383.234.425.467-.34.914 0 .999 0-.659 1.573-1.318 3.273-2.763 3.358-.872 1.169 1.891 1.254 1.381 1.275l-.064.17c-1.955.766-2.635 2.147-2.678 2.955.32.68.213.552.277.807l-.17.128c-.702-.702-1.212-.106-1.254-.234.106-.34 0-.531 0-.595-.723 1.913-.404 1.636-.34 2.359-.765.51-.32 1.998-.404 1.87l-.128.255-.404.107v.106l.49-.043.148-.233c-.234-1.509.191-1.212.298-1.637l.361-.17.425.213c.213.552.255.616.319.765.255 1.764-.106 4.123.212 5.058l-.148.064c-1.17-.213-.723-1.445-1.53-1.7-.128.042-.107 0-.128 0l-.085-.489c-.34-.17-.744 0-.68-.064-.32.361-.234.489-.277.468l.086.127.467-.361c.298.34 0 .531 0 .574 1.658.701.893 1.169 1.403 1.424l.574.191.063.191-.085.192-.148.085c-.872.021-.83-.234-.978-.234l-.128.467c.17.553.17.765.192.723 1.169.404 1.254.999 1.147 1.615.32.51.234.404.255.702-1.041.297-.871.063-.998.106l-.234-.276-.277.297v.17l.17.234c-.382.276-.212.68-.233.701.276.362.467.298.488.362l.107.233h.106c-.531-.892-.383-.765-.489-1.126.83-.298 1.913-.765 1.785-.744-.063-.361 0-.489-.042-.51-.255-.106-.17-.17-.213-.17.085-.553.15-.489.107-.595-.128-.085-.085-.085-.107-.106l.064-.107c.191-.085.255-.042.255-.063l.043-.064c0-.489-.468-.34-.468-.425.106-.17.128-.255.128-.234l-.277.064-.042-.149c.212-.723.765-.659.914-.723l.106.149c0 4.74-.978 4.782-1.254 7.715l.106.234-.127.17c-.383 2.933-1.318 5.569-.744 6.801l.234.234.042.213c-.361.106-.276.148-.319.148v.192l.085.106c.362-.064.362-.064.426-.043.467 7.715.616 12.731 2.699 17.96-1.892 3.91-1.828 7.842-3.23 10.095-1.234 8.204-4.23 16.769-1.404 21.679-1.126 2.168-2.274 2.062-2.316 3.273-4.187.957-6.058 6.079-6.674 8.013-4.76-1.19-13.156-12.901-13.836-15.834-.298.085-.489.297-.616.17-.192-.532.595-.935.276-1.127l-.085-.042c-.701.021-.787.68-.914.829-1.063-1.764.786-8.693 1.7-9.416 7.227 1.764.68-5.696 5.632-6.121 3.231-4.569 3.295-2.656 4.294-6.291.34-.085.276-.149.319-.149.212-1.147-.957-1.785-1.19-2.529-2.168.192-2.338-2.316-3.954-1.806l-.064-.043c0-.319 0-.361-.042-.382-.468-.192-.425-.107-.531-.234-.404-1.275-3.996-.553-4.464-1.467-3.847-.489-7.715-2.72-11.455.128-1.36-.85-2.508-.68-2.764-.68-.53-2.338-.552-4.145-.637-4.272-3.146-2.997-5.696-5.144-7.396-6.674-2.55 1.233-4.697 1.764-6.291-.064-6.568-.616-9.884-5.951-14.58-7.672-7.737.595-17.535 4.569-12.498-5.463-1.998-1.02-3.953-1.19-5.696-1.168-.637-.171-1.232-.404-1.445-.659-.234.063-.276.255-.34.297-3.847-.382-8.246 3.72-10.032 4.527-7.247 6.249-13.985 8.736-20.743 12.561.616-2.72 2.168-4.484.85-6.525 6.482-8.416-8.672-16.28-3.21-24.123 2.742-2.869 2.87-3.273.595-4.357.383-6.057 3.762-3.209.532-5.759-4.017-1.765 1.381-5.888-.255-6.483-10.797-6.227 8.523-11.371-1.637-11.137-1.339-3.145 3.762-2.019 2.955-4.081-14.368-3.145-4.889-9.946-2.445-12.05-1.126-1.467-.34-1.233-1.211-1.637-.17-.149-.085-.17-.128-.17 21.594-20.871 11.35 14.474 29.5-2.508 8.885-.297 9.82-2.487 12.944-7.609 5.484-13.177-7.906-10.329 5.547-14.941 2.445 4.973 5.654-.978 7.184 2.253 3.443 2.486 6.079 1.551 8.97 1.041.212-.149.127-.531.17-.51 1.976-2.848 6.099-3.209 7.714-4.208 3.103.744 5.505-1.148 4.527-3.762 3.23-.255 5.484-2.04 6.313-4.825 4.527 0 4.867.999 7.481 1.913 1.084 8.353 6.185 6.228 2.806 10.585 1.147.021 3.039.914 3.655 0l.191-.596c1.297-.148 1.68-.807 1.743-.913l.298-.107c.807.425 1.084.213 1.317-.106.362-2.253.85-4.251 1.318-4.74 1.594-.425 1.297.702 2.274.553 3.23-1.466 4.506-2.189 3.656-4.612 1.977-.765 2.614-.51 3.464-.808l.15-.212c-.065-1.828-.298-1.722-.17-1.87 3.591-.914 4.994-2.87 6.758-1.658.68.765.552 1.317.616 1.19.553.319.404.659.51.786l.149.064c.956-.149.808.17 1.126.383 2.848.531 2.147.595 2.976 1.424 2.827-1.339 4.846 1.615 5.42 3.166l.318.064.277-.17c.064-1.636.51-2.21.744-2.38l.595-.17.722.297.319.468c-.319 1.19-.956 1.424-.786 1.403.467.637.51.999.51.914.637.34 1.126.552 1.19.573 1.169-.17 1.169-.744 1.488-.786.361.255.425.425.552.425.128.701-.425.808-.446 1.041l.128.256c.318 4.357 2.274 5.972 4.93 6.546 0 .701.256.722.256.829-.638.552-.851 1.317-.723 1.7.446.319.701.17.744.276l.064.085c-.404.935-.404.999-.638 1.318 1.063 2.444 1.084 2.869 2.062 3.039l.085.106c7.991 22.869-10.925 9.118-4.804 17.45 1.254 2.571 3.741 4.251 3.316 6.482-.978 1.233 1.105 1.339 1.169 1.552h.106c.213-.192.191-.107.213-.149 1.254 1.063 2.359 2.614 3.719 2.763h.149c.467-.404.595-.872.616-.808 1.934.872 2.381-.297 2.529-.064 1.127.171 1.509-.765 1.786-.998l.276-.085z" mask="url(#c)"/><path stroke="#000" d="M155.87 130.604c.356-.139.533-.138.622-.109 1.031.901 2.443 1.07 3.523 1.117.282.012.553.016.793.02.244.005.452.009.628.021l.02.002c-.425.733-.783 1.368-1.096 1.929-.386.694-.702 1.266-1.004 1.774-.513.866-.976 1.53-1.641 2.231l-.262.174c-1.095.731-1.784 1.9-2.343 2.788-.291.464-.541.845-.8 1.121-.255.27-.472.389-.687.41l-.265.025-.126.233a7 7 0 0 0-.541 1.228l-.072-.13a10 10 0 0 0-.333-.56 1.6 1.6 0 0 0-.276-.335 1 1 0 0 0-.305-.179c-.069-.027-.111-.041-.182-.078l-.325-.172-.26.261-.213.212-.282.281.211.338c.238.38.283.591.289.695a.4.4 0 0 1-.01.128 7 7 0 0 0-.444.357q-.003-.028-.01-.058l-.02-.082-.469-.713.007-.035.041-.225-.142-.178a2.4 2.4 0 0 0-.402-.407 1 1 0 0 0-.104-.071v-.464l-.735.388-.361.191-.735.39.688.467c.557.377.848.964 1.049 1.497.05.133.091.253.134.373.039.11.084.23.132.331.037.075.123.25.293.357-.642.914-1.16 1.761-1.629 2.482-.722 1.105-1.307 1.872-2.049 2.293l-.052.03-.044.041c-1.776 1.667-2.742 2.975-3.458 4.096-.521.815-.879 1.47-1.308 2.091a2 2 0 0 0-.255-.48 1.2 1.2 0 0 0-.364-.317c-.051-.029-.107-.057-.145-.077a2 2 0 0 1-.118-.064l-.18-.109-.203.053c-.609.158-.855.195-.988.205.107-.701-.135-1.303-.412-1.739a4.4 4.4 0 0 0-.502-.64 6 6 0 0 0-.154-.163l-.051-.18-.272-.074-.233-.064-.145-.039-.142.046c-.3.097-.521.201-.679.327-.545-.257-.915-.456-1.237-.615a3.6 3.6 0 0 0-.756-.299 2.6 2.6 0 0 0-1.05-1.17 5 5 0 0 0-.582-.295l-.07-.03c-.057-.526-.098-.905-.133-1.178-.04-.301-.079-.54-.158-.722a.95.95 0 0 0-.369-.427c-.087-.062-.178-.122-.318-.267l-.201-.207-.28.07a4 4 0 0 0-.516.155c-.412-.236-.731-.44-.991-.615-.292-.195-.552-.382-.763-.51a1.9 1.9 0 0 0-.748-.291 2 2 0 0 0-.523.003c-.68-1.032-1.643-1.603-2.476-1.956-.456-.192-.886-.325-1.207-.427a8 8 0 0 1-.393-.133c-.11-.043-.131-.063-.118-.052l-.213-.183-.266.086c-.636.205-1.29-.044-1.876-.45a6 6 0 0 1-.719-.596c-.097-.091-.172-.167-.24-.233q-.049-.048-.095-.09c-.016-.014-.078-.072-.157-.111l-.046-.023-.05-.013-.333-.084c-.725-.173-1.163-.206-1.459-.168l-.02-.049-.059-.145-.13-.085-.399-.243c-.916-.522-1.748-.754-2.272-.949-.323-.12-.475-.206-.547-.282-.032-.034-.077-.086-.047-.285l.064-.422-.407-.129c-.922-.293-1.727-.544-2.345-.886-.507-.28-.831-.593-.986-.991 1.404-1.458 2.976-2.318 4.362-3.302 1.377-.977 2.545-2.08 2.72-3.978a4 4 0 0 1 .174-.161c.632 1.047 1.219 1.577 1.973 1.67.392.048.777-.033 1.132-.124.302-.077.589-.163.922-.239 3.162 3.243 6.903 5.444 9.673 6.85l.35.179.255-.299c1.168-1.365 2.793-1.521 4.629-1.532.889-.005 1.849.024 2.73-.079.888-.103 1.762-.344 2.503-.926l.001.001 1.361-.999.101-.076.054-.114c.429-.904.996-1.284 1.455-1.511a8 8 0 0 1 .346-.158c.105-.045.225-.096.327-.151a1.1 1.1 0 0 0 .338-.267.72.72 0 0 0 .148-.562l-.006-.041-.013-.041-.049-.136c.499-.313.902-.631 1.19-.855l.188-.142.059.066.125.041.192.065.187.062.179-.082c1.202-.55 1.625-.53 2.085-.528l.385.256c1.206.8 2.53.256 3.484-.209.525-.256.939-.49 1.329-.642Zm-7.09 11.919.018-.005.011-.002zM115 147.5l.5.5m.5 14 1-1"/></svg>