<svg xmlns="http://www.w3.org/2000/svg" width="169" height="184" fill="none" viewBox="0 0 169 184"><path fill="#002B42" stroke="#596580" d="M116.857 88.101q-.016.006-.037.01a1 1 0 0 1-.094.008 1.8 1.8 0 0 1-.467.608c-.307.266-.704.468-1.055.65-.741.384-1.454.765-1.893 1.59l-.228.43-.437-.218-.34-.17-.128-.065c-.113.157-.28.358-.539.63a.5.5 0 0 1-.336.413.5.5 0 0 1-.227.02l-.068-.013a1 1 0 0 1-.122-.048l-.097-.045a7 7 0 0 0-.686-.282c-.289-.1-.582-.172-.824-.179-.248-.007-.343.054-.381.1l-.334.401-.387-.35a3 3 0 0 0-.453-.304c-.227-.135-.51-.289-.833-.463-.601-.324-1.333-.713-2.047-1.135-1.835 3.417-3.394 7.993-2.523 12.141.144.085.271.18.381.276.147.129.335.32.447.424.231.215.449.374.765.436l.141.02.279.028.123.251c.284.581.357 1.42.139 2.225-.194.72-.63 1.44-1.391 1.949q.036.23.008.458a1.9 1.9 0 0 1-.298.77c-.135.213-.318.43-.522.656l.217.368c.106.18.147.415.171.534.032.163.055.272.091.358a.3.3 0 0 0 .036.065q.007.009.007.007a.2.2 0 0 0 .06.009.8.8 0 0 0 .224-.033l.394-.104.181.364c.031.061.08.157.104.257.034.149.006.266-.004.311-.005.023-.02.072-.026.208.263.096.487.131.721.11.3-.026.659-.143 1.163-.405l.109-.057h.122c.118 0 .205.042.241.061l.023.015c.15-.167.386-.348.778-.58l.022-.013.024-.011a.7.7 0 0 1 .489-.038.8.8 0 0 1 .349.22c.149.155.254.367.33.547.15.359.302.887.424 1.242a5 5 0 0 0 .132.341q.043-.074.095-.181l.136-.284h.548l.134.102a.5.5 0 0 0 .162.092l.017-.01a.8.8 0 0 0 .178-.208q.117-.177.256-.449l.191-.373.399.123a.9.9 0 0 1 .556.47l.019.043c.036-.194.118-.406.291-.576.247-.245.583-.31.925-.261q.362.053.805.274c1.13-1.076 2.511-2.024 3.964-3.038 1.582-1.104 3.276-2.307 4.935-3.893l.145-.139h.765v.055q.004-.009.01-.017c.012-.024.075-.161.115-.235.123-.229.31-.458.674-.652.341-.181.824-.326 1.532-.441l1.105-.18-.388.605c.191.112.453.253.772.418.715.369 1.673.853 2.39 1.374.355.258.692.554.908.881.223.34.352.781.136 1.236-.196.409-.619.705-1.159.936-.524.225-1.239.421-2.174.592-.411.45-.371.631-.353.702.021.084.07.178.168.34.088.146.218.351.313.589.213.529.239 1.164-.171 2.021-.277.576-.757 1.26-1.518 2.108.723-.043 1.279.128 1.69.528.321.312.497.715.612 1.103.113.384.182.814.25 1.193.146.821.3 1.428.721 1.78.392.328 1.178.551 2.924.106l.079-.021.081.006c.703.051 1.197-.119 1.585-.396.403-.288.725-.716 1.033-1.24.153-.26.296-.533.444-.816.146-.279.299-.57.461-.847.25-.427.544-.855.925-1.198l-.028-.038.052-.224c.078-.334.361-.474.515-.53.169-.062.367-.09.541-.108.179-.019.383-.031.57-.044a8 8 0 0 0 .553-.054c.384-.055.555-.143.609-.207.011-.012.028-.034.027-.1-.002-.079-.031-.223-.142-.451l-.143-.291.209-.25c.32-.381.777-.425 1.12-.408.329.016.742.105 1.035.15.335.052.598.066.804.012.174-.045.333-.143.464-.402l.312-.615.676.675.03.048a.4.4 0 0 0 .137.148.4.4 0 0 0 .164.047c.195.019.43-.022.851-.079.693-.092 1.61-.167 2.752.296a.8.8 0 0 1 .276-.323l.182-.125.028.006a1.1 1.1 0 0 1-.13-.337.68.68 0 0 1 .253-.678c.193-.147.436-.181.638-.187l.319-.01.143.286.036.071c.421-.026.916-.145 1.539-.358.772-.264 1.676-.644 2.822-1.105.076-.834.537-1.653 1.164-2.347.727-.805 1.734-1.504 2.835-1.942 1.1-.439 2.329-.631 3.493-.372 1.13.252 2.161.923 2.919 2.126l.006.001c.252.048.638.168 1.264.484l.085-.014c.193-.022.449-.02.77.045l.01-.027a4.6 4.6 0 0 1-.108-.999c-.007-.436.019-.93.057-1.453.071-1 .18-2.118.201-3.286a1.37 1.37 0 0 1-.46-.749 3 3 0 0 1-.638.539l-.338.214-.283-.283a.51.51 0 0 1-.147-.413.5.5 0 0 1 .038-.155c.014-.035.034-.074.044-.093h-.151l.094-.155-.002-.002-.129-.106v-.247l.001-.018c.001-.007.001-.027.005-.051a.5.5 0 0 1 .595-.412q.019-.05.038-.108c.069-.226.113-.512.052-.806l-.028-.133.043-.129a.6.6 0 0 1 .114-.204c.039-.046.083-.084.1-.099.026-.022.056-.053.101-.094l.002-.008.001-.005c.002-.064-.002-.174-.003-.525a2 2 0 0 0-.244-.169c-.1-.06-.287-.159-.438-.326-.162-.178-.262-.403-.343-.688a9 9 0 0 1-.204-1.059l-.014.002a4 4 0 0 1-.074-.636c-.011-.216-.017-.419-.039-.646a3.9 3.9 0 0 0-.417-1.468l-.055-.107v-.122c0-.123.042-.222.052-.248.012-.03.038-.086.044-.1.023-.054.05-.122.072-.22.03-.142.054-.37.021-.728a3.3 3.3 0 0 0-.732.353l-.192.126-.22-.062c-.678-.193-.686-.214-.95-.245-.317-.038-.834-.065-2.469-.228l-.021-.002-.02-.003c-2.474-.45-4.773-.599-7.397-.753-2.621-.154-5.555-.314-9.262-.795l-.036-.005-.035-.01a1 1 0 0 1-.475-.291 1.06 1.06 0 0 1-.223-.434c-.066-.25-.059-.549-.062-.721-.004-.221-.02-.333-.051-.398-.005-.013-.012-.04-.084-.062-1.26.163-2.126.633-2.489 1.317-.361.681-.334 1.793.735 3.499l.257.411-.404.27-.128.085-.178.119-.209-.047c-.439-.1-.712-.13-.872-.127q.023.099.073.249c.072.219.196.548.288.876.19.68.314 1.571-.191 2.46-.497.877-1.54 1.636-3.393 2.226l-.065.02-.067.004c-.381.015-.742-.042-1.016-.26-.29-.233-.373-.558-.386-.827-.013-.26.034-.54.078-.778.048-.26.097-.488.122-.72.05-.46-.017-.726-.244-.904-.279-.218-.927-.422-2.378-.32a.54.54 0 0 1-.346-.048.7.7 0 0 1-.189-.148c-.046-.05-.123-.151-.154-.189a2 2 0 0 0-.131-.144c-.418.348-.776.504-1.235.67-.531.195-1.22.418-2.43 1.06l-.109.058h-.689l-.119-.331c-.172-.477-.359-.806-.566-1.044a1.9 1.9 0 0 0-.753-.525c-.66-.271-1.569-.352-3.023-.505l-.281-.03-.12-.254c-.198-.422-.346-1.11-.143-1.788.196-.658.699-1.233 1.612-1.544.226-.815.51-1.657 1.067-2.616.608-1.044 1.524-2.207 3.003-3.632.038-.084.071-.141.094-.181l.004-.008a2 2 0 0 0 .006-.218c-.003-.125-.013-.297-.027-.539a.85.85 0 0 0-.355-.18c-.15-.033-.337-.024-.592.05-.259.074-.56.206-.932.39-.378.19-.775.404-1.271.657l-.107.056h-.121c-.991 0-2.423-.002-3.653.38-.609.19-1.139.465-1.534.856-.388.383-.668.899-.756 1.618l-.377-.023a1.6 1.6 0 0 1-.131.45.5.5 0 0 0 .13-.015Zm0 0h.009l.014-.004.004-.001.001-.001-.009.002zm-.48-.464v.02l-.032.037.014-.058z"/><path fill="#002B42" stroke="#596580" d="M125.735 63.684c.293.479.497.768.628.942l.094.12.043.054-.019-.027a.5.5 0 0 1-.065-.285.5.5 0 0 1 .204-.366c.13.184.21.291.255.347l-.171.518.807.34.128.053.137-.02a10.1 10.1 0 0 1 2.98.054c.464.082.838.196 1.087.324.206.107.247.18.252.191l.022.318.309.11c.131.047.257.177.38.377.063.1.099.175.153.27.019.035.056.1.102.156a.6.6 0 0 0 .16.136q.045.026.108.044c.607.282.976.397 1.251.425v.29l.552-.056c.747-.077 1.151.04 1.421.164.151.069.265.142.419.231.143.082.327.184.55.233l.143.032.137-.05.233-.085.24-.087.07-.246.085-.297.007-.026c1.948.036 2.325.125 2.945.221v.019h.127c.231.034.506.07.904.105l.542.044v-.417c4.314-.612 7.877-.297 10.592.92 2.81 1.26 4.76 3.51 5.705 6.83l-.142.12.108.324c.264.794.352 1.126.38 1.262l.009.048a.6.6 0 0 0 .063.264l.036.072.098.099c.089 1.098.163 1.602.297 1.97.073.199.16.353.239.499.07.131.151.29.252.528-.015.813.29 1.395.497 1.817.224.46.285.654.166.921l-.207.463.389.167.035.658-.232-.18-.167.776-.032.147-.312.297-.156.148v.65l.248.146.256.148.288.168.266-.202q.12-.092.211-.167l.033.085.196.082q.218.09.378.128l.122.69c.049.276.097.517.164.734.135.432.339.73.69 1.087.141.583.203.977.231 1.227-.343.076-.556.16-.725.268-.157.1-.187.135-.218.16-.774-.23-1.666-.338-2.337-.39a21 21 0 0 0-.885-.049l-.155-.005c-2.709-.56-5.718-.731-8.616-.871-2.863-.14-5.607-.25-7.928-.657-.202-.21-.222-.445-.239-.778-.007-.153-.013-.442-.134-.683a.87.87 0 0 0-.334-.358 1.1 1.1 0 0 0-.476-.145l-.04-.004-.041.003c-1.145.079-1.999.37-2.595.852-.606.49-.892 1.136-.972 1.809-.12.998.209 2.083.599 2.955q-.183.027-.352.11c-.351.18-.539.5-.649.805-.108.303-.164.658-.203 1.005-.02.176-.036.36-.053.542q-.023.278-.052.555c-.082.759-.216 1.437-.55 1.928-.279.41-.735.74-1.597.799-.199-.285-.354-.64-.503-1.05-.169-.467-.342-1.054-.563-1.526-.228-.488-.558-.981-1.121-1.242-.501-.23-1.098-.239-1.808-.04a6 6 0 0 1-.272-.28c-.044-.048-.107-.117-.193-.178a1 1 0 0 0-.273-.133l-.266-.088-.214.18c-.658.553-1.475.88-2.216 1.14-.355.126-.72.245-.999.362q-.12.05-.236.11a2.9 2.9 0 0 0-.816-1.196c-.464-.396-1.007-.581-1.527-.676-.51-.094-1.046-.108-1.483-.131-.356-.02-.64-.045-.864-.099-.113-.322-.129-.563-.104-.741a.9.9 0 0 1 .257-.515c.295-.308.738-.462 1.075-.594l.249-.098.057-.262c.729-3.382 3.107-5.153 3.968-6.13l.051-.058.032-.073c.264-.604.271-1.099.222-1.435a2 2 0 0 0-.041-.21l-.029-.107c.001.009.006.036.006.072 0 .024.002.123-.057.233a.49.49 0 0 1-.361.253 2 2 0 0 0-.068-.42l.378-.4c-.89-.92-2.053-.615-2.835-.26-.409.186-.783.416-1.06.584a7 7 0 0 1-.338.198q-.031.016-.051.024c-1.53-.097-3.185.106-4.487.671-1.137.494-2.083 1.31-2.331 2.5h-.215l-.144.248c-.566.971-1.33 1.433-2.023 1.81-.329.18-.703.37-.979.593a2 2 0 0 0-.232.219l-.019-.025-.147-.146h-.565l-.148.15c-.488.497-.73.829-.872 1.046a21 21 0 0 1-1.049-.347c-.128-.046-.242-.089-.325-.118a1.6 1.6 0 0 0-.269-.075.7.7 0 0 0-.365.032c-.103.038-.188.098-.227.125-.048.033-.101.072-.178.118a12.6 12.6 0 0 0-1.972-1.132c-.493-.23-.827-.375-1.124-.58q.003-.067.007-.094l.006-.031.009-.065c.001-.014.006-.058 0-.111a.5.5 0 0 0-.128-.284l-.017-.029-.338-.563-.453.476c-.43.453-.673.68-.862.777l-.034.012c.168-.483.282-.944.393-1.343.138-.496.274-.903.495-1.254l.314-.172.195-.108.051-.216c.182-.777.544-1.247.856-1.432a.54.54 0 0 1 .37-.09c.093.016.213.073.341.233l.292.364.383-.266c2.173-1.509 3.749-3.594 5.064-5.839 1.305-2.228 2.394-4.691 3.526-6.902 2.253-4.4 4.741-7.94 9.835-8.299Zm33.653 27.088c.017.006.05.017.087.04a.5.5 0 0 1 .248.453l-.407-.015.03-.489zm4.759-.107c.025.206.032.338.034.415l-.024-.02-.059-.376-.096.017a.5.5 0 0 1 .137-.035zm-48.145-3.08.004.024z"/><mask id="a" fill="#fff"><path d="m72.743 96.45-.042-.128c-.404-.34-.383-.064-.744-1.106-6.227-.34-4.655-6.057-7.248-12.518-.51-2.36.744-8.204-2.231-10.605-.85-.766-.702-1.233-.596-3.295-.17-.064-.403-.786-.956-1.743-.786-1.891-1.403-4.378-2.147-7.502-.255-1.87 1.467-2.38 2.87-4.846-2.21-6.716-9.543-13.496-2.933-21.934-.255-.127.085-.106-.787-.808v.234h-.106s0-.191-.255-.276l-.085.042s-.085 0-.34-.233l.17-.043.064-.106s.085-.043-.128-.298c-.34 0-.106-.233-1.743-.148l.128.382s-.085.128-.34.106c0-.02 0-.106.106-.233h-.212l.17-.213v-.17s.042-.043-.277-.276c0 .064-1.679.935-3.103-.34-.063 0-.319.404-.807 0v-.107s-.043-.042.34.107c0 .02 0-.064-.107-.234.043.042.043 0 .468.234-.319-.765-.446 0-2.53-2.062 0-.064-.17.276-.573.34-.106.404-.064.043-.234 1.254-.063-.042 0-.021-.234-.106.128.276-.127 1.105.914 1.7l.043.319c-.574.68-.234 1.785-1.85 2.55-.042.17-.148-.106-.446 1.127l-.085.085c-.19.021-.53.042-.616.701-.17.213 0 0-2.104.765.085.107 0 .043.298.277l.042.127c-.212.319-.106.51-2.02 2.338-.254.234-1.848-.085-2.805.51-.212-.042-.786.043-1.381.234-.043 0-.128-.085-.361-.446h-.213c-.51 1.551-1.381 1.466-2.933 4.123.191.382.085-.064.17 1.466-.786.532-.446 2.232-1.849 2.7-.765 2.04-3.486 3.273-3.55 5.993.17.064 0 .276.575 1.382l.233-.128c1.254.276 2.083 3.358-.191 4.612-.064.149.064.213.34 1.233 0 .127-.213.085-.383.744l.107.297c2.253 2.89 3.55 7.694 0 10.946-.213-.319-1.127 2.338-2.614 2.933-.064.149.34.595.085 1.148 0 .042.02 0 .233.34-.233.914-.765.489-.106 2.763-.956.85.914 1.657.234 2.975 1.02 1.063 1.679 2.487 3.57 3.082l.234.255v1.254l.085.128s0-.043.213.042l.042.213-.403.276a2.4 2.4 0 0 0-.064 1.913l-.064.148s-.128.043-.297.192c.17 1.849-1.87 5.972-5.378 4.208-1.509.425-4.017 2.508-5.887.446-.043-.085 0-.063-.17-.51l-.128-.085s-.106.085-.467.064l-.064-.127-.914-.51h.107c-.893-.745-3.167.34-5.165.807-.064-.085.064 0-.17-.297l-.191-.064c-.128.255-.404.361-1.276.574-.063.063 0 .106-.233.913 0 0-.043 0-.468-.34 0 .043-.213-.042-.361.298 0 .021.212.042.34.425l-.043.064s-.042.021-.361-.043l.085-.064s-.234.32-.85.617c-.043.064-.022.085-.107.638-.446.127-.382 1.084-1.509 1.36 0-.298-.063.786-.807 1.743.085.085-.553-.213-1.084.233-1 .043-2.7 1.021-4.123 3.103l-.107-.106c-.127.064-.935.425-1.211 1.488l-.298.127s-.106-.17-.659-.552c-.212-.085-.467.51-1.062-.021.212-.043-.638.17-.893.85-.042 0 .064.042-.404 0-.042.106-.106.042-.127.382l-.107.128c-2.784 1.785-9.776.786-10.456 6.95 0 .021-.022 0-.192.127.064.404.213.085 0 .935l-.106-.127s0 .255-.106.85l.106.191v.107l-.127.127s-.043.043.19.191l.043.128-.063.106-.192.106c.107 1.382-1.232 3.592-2.21 5.909-.765.808-.574.34-.999 3.188l-.531.383v.127l.319.106-.043.149c-.574-.021-.298 1.424-1.53 1.934.042-.085-.404.425-.574.808h-.255c-.021.191 0-.298-.595.829l.042.446c-1.233 1.02-.085 3.209.574 5.654v.106l-.106.085c-.83 1.636 3.337 3.847 1.275 5.781.17.616-.468 1.615.106 4.081-.573.765-.51 1.169-.489 3.825.064 0-.19.043-.68.383-.02.064 0 .276 0 1.02.107-.064-.255.149-.914 1.615.596.68 0 .787.128 2.338 6.801-3.932 11.434 18.002 22.508 6.143 1.742-3.146 9.436 2.89 14.26-9.65 4.932-5.738-7.438-10.393 5.123-13.644 1.297 3.761 5.037-.192 7.184 2.252 2.72 1.849 4.76 1.998 8.969 1.042.149-.128.085-.106.17-.51 1.615-2.508 4.4-2.678 7.715-4.208 2.36-.213 5.122 1.232 4.59-3.932 2.87-.234 4.868-.723 6.228-4.676-.106.382 5.292-3.018 5.739-4.761.425-.255.637-.383 1.785.085.531-.213.276-.638.701-1.509.192-.043.277.064.787.319.616-.234-.192-.617 1.041-1.084.468-1.658 8.055-5.42 1.87-9.054 2.933-1.934-4.548-5.675 2.062-6.228-.701-3.294-.829-4.25 2.083-9.606z"/></mask><path fill="#002B42" stroke="#596580" stroke-width="2" d="m72.743 96.45-.042-.128c-.404-.34-.383-.064-.744-1.106-6.227-.34-4.655-6.057-7.248-12.518-.51-2.36.744-8.204-2.231-10.605-.85-.766-.702-1.233-.596-3.295-.17-.064-.403-.786-.956-1.743-.786-1.891-1.403-4.378-2.147-7.502-.255-1.87 1.467-2.38 2.87-4.846-2.21-6.716-9.543-13.496-2.933-21.934-.255-.127.085-.106-.787-.808v.234h-.106s0-.191-.255-.276l-.085.042s-.085 0-.34-.233l.17-.043.064-.106s.085-.043-.128-.298c-.34 0-.106-.233-1.743-.148l.128.382s-.085.128-.34.106c0-.02 0-.106.106-.233h-.212l.17-.213v-.17s.042-.043-.277-.276c0 .064-1.679.935-3.103-.34-.063 0-.319.404-.807 0v-.107s-.043-.042.34.107c0 .02 0-.064-.107-.234.043.042.043 0 .468.234-.319-.765-.446 0-2.53-2.062 0-.064-.17.276-.573.34-.106.404-.064.043-.234 1.254-.063-.042 0-.021-.234-.106.128.276-.127 1.105.914 1.7l.043.319c-.574.68-.234 1.785-1.85 2.55-.042.17-.148-.106-.446 1.127l-.085.085c-.19.021-.53.042-.616.701-.17.213 0 0-2.104.765.085.107 0 .043.298.277l.042.127c-.212.319-.106.51-2.02 2.338-.254.234-1.848-.085-2.805.51-.212-.042-.786.043-1.381.234-.043 0-.128-.085-.361-.446h-.213c-.51 1.551-1.381 1.466-2.933 4.123.191.382.085-.064.17 1.466-.786.532-.446 2.232-1.849 2.7-.765 2.04-3.486 3.273-3.55 5.993.17.064 0 .276.575 1.382l.233-.128c1.254.276 2.083 3.358-.191 4.612-.064.149.064.213.34 1.233 0 .127-.213.085-.383.744l.107.297c2.253 2.89 3.55 7.694 0 10.946-.213-.319-1.127 2.338-2.614 2.933-.064.149.34.595.085 1.148 0 .042.02 0 .233.34-.233.914-.765.489-.106 2.763-.956.85.914 1.657.234 2.975 1.02 1.063 1.679 2.487 3.57 3.082l.234.255v1.254l.085.128s0-.043.213.042l.042.213-.403.276a2.4 2.4 0 0 0-.064 1.913l-.064.148s-.128.043-.297.192c.17 1.849-1.87 5.972-5.378 4.208-1.509.425-4.017 2.508-5.887.446-.043-.085 0-.063-.17-.51l-.128-.085s-.106.085-.467.064l-.064-.127-.914-.51h.107c-.893-.745-3.167.34-5.165.807-.064-.085.064 0-.17-.297l-.191-.064c-.128.255-.404.361-1.276.574-.063.063 0 .106-.233.913 0 0-.043 0-.468-.34 0 .043-.213-.042-.361.298 0 .021.212.042.34.425l-.043.064s-.042.021-.361-.043l.085-.064s-.234.32-.85.617c-.043.064-.022.085-.107.638-.446.127-.382 1.084-1.509 1.36 0-.298-.063.786-.807 1.743.085.085-.553-.213-1.084.233-1 .043-2.7 1.021-4.123 3.103l-.107-.106c-.127.064-.935.425-1.211 1.488l-.298.127s-.106-.17-.659-.552c-.212-.085-.467.51-1.062-.021.212-.043-.638.17-.893.85-.042 0 .064.042-.404 0-.042.106-.106.042-.127.382l-.107.128c-2.784 1.785-9.776.786-10.456 6.95 0 .021-.022 0-.192.127.064.404.213.085 0 .935l-.106-.127s0 .255-.106.85l.106.191v.107l-.127.127s-.043.043.19.191l.043.128-.063.106-.192.106c.107 1.382-1.232 3.592-2.21 5.909-.765.808-.574.34-.999 3.188l-.531.383v.127l.319.106-.043.149c-.574-.021-.298 1.424-1.53 1.934.042-.085-.404.425-.574.808h-.255c-.021.191 0-.298-.595.829l.042.446c-1.233 1.02-.085 3.209.574 5.654v.106l-.106.085c-.83 1.636 3.337 3.847 1.275 5.781.17.616-.468 1.615.106 4.081-.573.765-.51 1.169-.489 3.825.064 0-.19.043-.68.383-.02.064 0 .276 0 1.02.107-.064-.255.149-.914 1.615.596.68 0 .787.128 2.338 6.801-3.932 11.434 18.002 22.508 6.143 1.742-3.146 9.436 2.89 14.26-9.65 4.932-5.738-7.438-10.393 5.123-13.644 1.297 3.761 5.037-.192 7.184 2.252 2.72 1.849 4.76 1.998 8.969 1.042.149-.128.085-.106.17-.51 1.615-2.508 4.4-2.678 7.715-4.208 2.36-.213 5.122 1.232 4.59-3.932 2.87-.234 4.868-.723 6.228-4.676-.106.382 5.292-3.018 5.739-4.761.425-.255.637-.383 1.785.085.531-.213.276-.638.701-1.509.192-.043.277.064.787.319.616-.234-.192-.617 1.041-1.084.468-1.658 8.055-5.42 1.87-9.054 2.933-1.934-4.548-5.675 2.062-6.228-.701-3.294-.829-4.25 2.083-9.606z" mask="url(#a)"/><mask id="b" fill="#fff"><path d="M166.599 114.961c.064.213.128.213.128.234-.914 2.423-.383 1.764-.659 2.295h-.212c-.808-.467-.787-.616-1.106-.574.766.383.383.936.702 1.169.149-.255.085-.212.106-.233-.361 2.04-1.36 3.209-.978 4.335-1.041 2.338-1.827 4.931-2.189 5.314v.17l-.17.149c-.34 1.891-1.233 3.166-1.147 3.91-3.337-.977-4.655.064-5.441-1.339-3.847.383-3.529 2.189-5.42.978-.106-.319 0-.234-.021-.276l-.064-.107c-1.552-.063-2.593.553-2.869.617l-.192-.064-.191-.213c-1.849.851-1.403 1.127-2.104 1.339 0 .362.191.404.149.532-2.7 2.019-2.041 1.063-2.572 2.359l-1.36.999c-5.059 2.125-8.736.106-9.947 2.614-4.123-1.934-7.439-4.633-9.734-6.95-3.677 1.53-2.317-.064-3.996-1.424-.935.425-.765.574-.85.595-.404 4.017-5.441 4.91-7.163 7.375-1.105-3.549-1.232-2.253-1.19-4.059l-.127-.255c.403-.447.531-.808.446-1.042-.404-.191-.446-.446-.553-.425-.765.638-1.36.808-1.487.787-.829-.362-.978-.447-1.191-.574-.425-.872-.318-.617-.51-.914.893-1.169.617-.893.787-1.403l-.319-.467-.723-.298-.595.17c-1.19 1.297-.382 2.104-.744 2.38l-.276.171-.319-.064c-1.381-4.017-3.166-3.21-5.42-3.167-.786-1.424-3.4-1.424-2.975-1.424-.319-.553-1.126-.404-1.126-.383l-.15-.063c-.042-.553-.488-.723-.51-.787-.424-1.169-.318-.85-.616-1.19-3.294-1.275-5.292 2.019-6.758 1.658.212 1.828.234 1.658.17 1.87l-.15.213c-1.657.446-3.25.382-3.463.807 1.317 3.465-2.742 3.783-3.656 4.612-.808-.063-1.722-.914-2.274-.552-1.212 2.529-1.042 3.74-1.318 4.739-.382.765-1.211.043-1.318.107l-.297.106c-.893 1.318-1.53.489-1.743.914l-.191.595c-2.38 1.551-2.253-.553-3.656 0 2.274-2.062.638-4.74-1.53-5.016-1.063-2.04-.149-4.506-1.275-5.568-2.508-1.233-4.783-1.828-7.482-1.913 3.528-1.488 3.932-2.551 5.739-4.761.722-.553 1.721.106 1.785.085.744-.34.383-1.467.701-1.509.49 0 .68.361.787.319.297-.404.956-1.254 1.041-1.084 3.932-3.443 5.824-7.715 1.87-9.054 1.743-2.253-1.487-4.634-.36-5.781 12.56-1.552 21.444-1.424 26.97 7.353.83-.255 1.042-.595 1.254-.552.362.446.276.51.319.489h.085c1.084-.957 1.36-2.912 2.253-2.253l.064-.043c.064-1.084.914-1.041 1.317-.892.362-.489 1.063-.723 1.021-.68.51.191.382 0 .637.021.128 1.041.489 1.254 1.148 1.169.149.34-.043.892.021.807l.106.128c1.191.595 1.807 0 2.508-.234.213.17.17.255.234.298.425-.277 1.105-1.021 1.063-.872 1.19.617 1.063 3.953 2.061 1.892h.064c.872.722 1.105-.532 1.36-.744.362.297.681 1.084 1.191.871l.063-.085c-.85-1.53 1.701-.829 1.573-.701 3.103-2.848 6.993-4.697 9.161-7.184h.063c.064.234.043.213.064.234l.064.064c.914-.383 2.04-1.701 2.784-1.594 7.056 3.91 3.953 3.868 1.084 4.994.064 2.742-.276 5.378-2.593 6.823 0 1.36 2.976-1.063 3.401.276.531 9.926 8.437 1.849 9.479-.595.042-.191-.128-.319-.106-.298 1.764-.701 3.273 0 2.635-1.827 2.147-.574 2.72.382 3.486-.744l.148.148c.999.957 3.422-.403 4.655.851h.064c.127-.383-.022-.532.17-.617 2.253.51-.829-1.339.701-1.232l.043.085c-.043.17-.043.233-.022.255 2.126-.128 3.932-1.106 5.314-1.616.489-5.781 8.608-5.207 9.585-2.465 1.658.489 1.36.553 1.531.595-.468.085-.596.255-.596.213 1.361-.107 1.106 0 1.573.106.149.85.489.744.51.999-.297.574-.425 1.02-.425.977h-.127c0-.467-.064-.573-.043-.616-.191.234-.064.51-.106.468-.468-.85-.34-.595-.468-.914-.063.892.34 1.211.234 1.147l-.064.319-.212-.042c-.51.191-.489.552-.51.51.489-.234.425-.276.489-.319h.127l.064.043c-.446.467-.532 1.615-.468 1.466l.149.191.616.128c.107.552.022 1.169.043 1.041l.212-.467c.298.659.298.744.362.807-.149.17-.107.192-.128.213z"/></mask><path fill="#002B42" stroke="#596580" stroke-width="2" d="M166.599 114.961c.064.213.128.213.128.234-.914 2.423-.383 1.764-.659 2.295h-.212c-.808-.467-.787-.616-1.106-.574.766.383.383.936.702 1.169.149-.255.085-.212.106-.233-.361 2.04-1.36 3.209-.978 4.335-1.041 2.338-1.827 4.931-2.189 5.314v.17l-.17.149c-.34 1.891-1.233 3.166-1.147 3.91-3.337-.977-4.655.064-5.441-1.339-3.847.383-3.529 2.189-5.42.978-.106-.319 0-.234-.021-.276l-.064-.107c-1.552-.063-2.593.553-2.869.617l-.192-.064-.191-.213c-1.849.851-1.403 1.127-2.104 1.339 0 .362.191.404.149.532-2.7 2.019-2.041 1.063-2.572 2.359l-1.36.999c-5.059 2.125-8.736.106-9.947 2.614-4.123-1.934-7.439-4.633-9.734-6.95-3.677 1.53-2.317-.064-3.996-1.424-.935.425-.765.574-.85.595-.404 4.017-5.441 4.91-7.163 7.375-1.105-3.549-1.232-2.253-1.19-4.059l-.127-.255c.403-.447.531-.808.446-1.042-.404-.191-.446-.446-.553-.425-.765.638-1.36.808-1.487.787-.829-.362-.978-.447-1.191-.574-.425-.872-.318-.617-.51-.914.893-1.169.617-.893.787-1.403l-.319-.467-.723-.298-.595.17c-1.19 1.297-.382 2.104-.744 2.38l-.276.171-.319-.064c-1.381-4.017-3.166-3.21-5.42-3.167-.786-1.424-3.4-1.424-2.975-1.424-.319-.553-1.126-.404-1.126-.383l-.15-.063c-.042-.553-.488-.723-.51-.787-.424-1.169-.318-.85-.616-1.19-3.294-1.275-5.292 2.019-6.758 1.658.212 1.828.234 1.658.17 1.87l-.15.213c-1.657.446-3.25.382-3.463.807 1.317 3.465-2.742 3.783-3.656 4.612-.808-.063-1.722-.914-2.274-.552-1.212 2.529-1.042 3.74-1.318 4.739-.382.765-1.211.043-1.318.107l-.297.106c-.893 1.318-1.53.489-1.743.914l-.191.595c-2.38 1.551-2.253-.553-3.656 0 2.274-2.062.638-4.74-1.53-5.016-1.063-2.04-.149-4.506-1.275-5.568-2.508-1.233-4.783-1.828-7.482-1.913 3.528-1.488 3.932-2.551 5.739-4.761.722-.553 1.721.106 1.785.085.744-.34.383-1.467.701-1.509.49 0 .68.361.787.319.297-.404.956-1.254 1.041-1.084 3.932-3.443 5.824-7.715 1.87-9.054 1.743-2.253-1.487-4.634-.36-5.781 12.56-1.552 21.444-1.424 26.97 7.353.83-.255 1.042-.595 1.254-.552.362.446.276.51.319.489h.085c1.084-.957 1.36-2.912 2.253-2.253l.064-.043c.064-1.084.914-1.041 1.317-.892.362-.489 1.063-.723 1.021-.68.51.191.382 0 .637.021.128 1.041.489 1.254 1.148 1.169.149.34-.043.892.021.807l.106.128c1.191.595 1.807 0 2.508-.234.213.17.17.255.234.298.425-.277 1.105-1.021 1.063-.872 1.19.617 1.063 3.953 2.061 1.892h.064c.872.722 1.105-.532 1.36-.744.362.297.681 1.084 1.191.871l.063-.085c-.85-1.53 1.701-.829 1.573-.701 3.103-2.848 6.993-4.697 9.161-7.184h.063c.064.234.043.213.064.234l.064.064c.914-.383 2.04-1.701 2.784-1.594 7.056 3.91 3.953 3.868 1.084 4.994.064 2.742-.276 5.378-2.593 6.823 0 1.36 2.976-1.063 3.401.276.531 9.926 8.437 1.849 9.479-.595.042-.191-.128-.319-.106-.298 1.764-.701 3.273 0 2.635-1.827 2.147-.574 2.72.382 3.486-.744l.148.148c.999.957 3.422-.403 4.655.851h.064c.127-.383-.022-.532.17-.617 2.253.51-.829-1.339.701-1.232l.043.085c-.043.17-.043.233-.022.255 2.126-.128 3.932-1.106 5.314-1.616.489-5.781 8.608-5.207 9.585-2.465 1.658.489 1.36.553 1.531.595-.468.085-.596.255-.596.213 1.361-.107 1.106 0 1.573.106.149.85.489.744.51.999-.297.574-.425 1.02-.425.977h-.127c0-.467-.064-.573-.043-.616-.191.234-.064.51-.106.468-.468-.85-.34-.595-.468-.914-.063.892.34 1.211.234 1.147l-.064.319-.212-.042c-.51.191-.489.552-.51.51.489-.234.425-.276.489-.319h.127l.064.043c-.446.467-.532 1.615-.468 1.466l.149.191.616.128c.107.552.022 1.169.043 1.041l.212-.467c.298.659.298.744.362.807-.149.17-.107.192-.128.213z" mask="url(#b)"/><mask id="c" fill="#fff"><path d="M49.28 31.838c-.468 1.19-1.212 2.465-1.85 2.55-.68 1.255-.404 1.148-.446 1.127l-.085.085c-.66-.064-.51.659-.617.701-1.466.702-2.125.574-2.104.765.17.255.361.277.298.277l.042.127c-1.636 2.38-1.679 1.956-2.019 2.338-1.636.361-2.189 0-2.805.51-.83-.106-1 .234-1.382.234-.34-.276-.276-.446-.361-.446h-.213c-.828 1.998-2.975 3.422-2.933 4.123.34 1.233.085 1.573.17 1.467-1.02 1.275-.871 2.507-1.849 2.699-1.466 2.571-3.677 4.144-3.55 5.993.49 1.19.426 1.297.575 1.382l.233-.128c2.253.935.872 4.485-.19 4.612.17 1 .424 1.084.34 1.233-.34.489-.383.723-.383.744l.106.297c3.167 3.358 2.465 8.757 0 10.946-1.977 2.55-1.148 2.168-2.614 2.933.234.744.191.829.085 1.148.234.319.212.297.234.34-.723 1.275-.15 2.7-.107 2.763-.85 1.424 1.17 2.36.234 2.975 1 1.467 2.466 2.742 3.57 3.082l.235.255v1.254l.085.128c.276.021.17.063.212.042l.043.213-.404.276c-.553 1.552-.106 1.297-.064 1.913l-.064.149c-.276.17-.234.127-.297.191-.043 3.953-3.04 5.27-5.377 4.208-2.785 1.17-4.187 1.998-5.888.447-.106-.34-.17-.51-.17-.51l-.127-.086c-.425.107-.298.064-.468.064l-.064-.127-.914-.51h.107c-2.615-.914-3.465.807-5.165.807a.6.6 0 0 0-.17-.297l-.191-.064c-.51.744-1.212.297-1.275.574-.234.807-.15.85-.234.914-.49-.362-.362-.234-.468-.34-.404.127-.297.255-.361.297.361.255.276.383.34.425l-.043.064c-.382 0-.318-.042-.36-.042l.084-.064c-.723.595-.595.51-.85.616-.128.531-.064.595-.106.638-.723.829-.978 1.36-1.51 1.36-.7 1.785-.297 1.169-.807 1.743-.999-.064-.829.127-1.084.234-2.678.467-3.38 2.444-4.123 3.103l-.106-.107c-1.297.553-.83 1.254-1.212 1.488l-.297.128c-.553-.51-.447-.383-.66-.553-.573.319-.934.085-1.062-.021-.956.659-.638.404-.893.85-.467.021-.36-.021-.403 0-.213.276-.085.404-.128.382l-.106.128c-5.377 1.828-10.223 2.487-10.457 6.95-.191.106-.191.085-.191.127.212.404-.064 1.084 0 .936l-.107-.128c-.02.68-.127.723-.106.85l.106.192v.106l-.127.127c.149.234.191.17.191.192l.043.127-.064.106-.191.107c0 2.848-1.743 3.91-2.21 5.908-1.319 1.318-.723 3.401-1 3.188l-.531.383v.127l.319.107-.043.148c-1.041 1.021-.786 1.892-1.53 1.934-.659.574-.298.532-.574.808h-.255c-.786.723-.489.808-.595.829l.043.446c-1.34 1.764.34 4.336.573 5.654v.106l-.106.085c-.34 3.847 3.443 3.252 1.275 5.781-.127 2.551-.233 3.528.107 4.081-1.17 1.828-.085 3.592-.49 3.826-.616.297-.467.233-.68.382-.02.786.064.914 0 1.02-.998 1.637-.743 1.105-.913 1.616.68.68-.15 2.252.127 2.337-12.603-4.909-6.673-6.461-11.286-9.16-3.081-1.403 2.53-2.997 1.233-4.569-7.927-3.21-3.252-6.823-8.969-8.374 3.826-3.826 3.06-12.136 9.84-10.351l.064-.085c-.446-.51-.977-1.084-.85-1.403 1.467-1.02.191-2.89 1.233-3.804-.085-.914-.319-1.892-.404-1.955-12.56-1.765-5.866 5.355-13.496-4.634-.085-.127-.042-.149-.042-.149.063-.127.085-.085.085-.106v-.106c-.426-.638-.277-.425-.468-.531l-.064.042-.042.064c.042.255 0 .276 0 .319l-.043.042h-.085c-.17-.085-.149-.106-.17-.106-.085-.744-.361-1.254-.446-1.275-.383-.043-.447-.064-.51-.107-.468-.871-1.934-2.486-2.89-2.061l-.277-.128c1.19-.956 1.615-.892 1.721-1.084l.234-.701-.17-.638c-.999-.914-1.7-.425-1.721-.574-.68.574-.85.659-.936.681-.446-1.616-1.679-1.446-1.615-1.935l.255-.531.66-.276.764.212c2.657-3.655 2.21-2.444 2.636-4.527-.638-1.381.085-2.444.106-2.593l-.213-.595c.68-2.486.66-2.699 1.36-3.677-.658-.85.362-1.721.128-1.594l-.17-.573c.787-1.53.51-1.36.616-1.956-2.21-4.038.553-6.248-1.849-8.225l.234-2.593c-4.824-5.993-10.074-4.484-14.58-7.12-3.804-.446-3.38 1.828-4.548 2.763-.213-.234-.213-.404-.213-.34-1.296-.468-1.657.999-1.7.786l-.34-.042c4.527-3.91 11.838-9.5 15.813-12.646.637.297.85-.191 1.126-.085 3.868.404 4.931-5.08 6.716-7.141l-.19-.362h.233c-.128-.829.319-1.169.34-1.275.234.213.383.234.34.234.042-.595.255-.468.276-.553l.17.085c3.571-2.699 3.55-4.633 3.805-7.311h.021c.191-.17.191-.255.213-.276-.064-.15-.085-.107-.085-.128v-.382l.106-.15c.446-.105.425-.084.467-.105v-.192c.32-.233.425-.212.468-.276.085-.446-.043-.404 0-.51l.212-.043-.042-.148c.149-.51.319-.66.276-.638-.255-.425-.042-.786-.063-.765.318-.234.233-.191.297-.319h.085c.765-.978 1.041-.68 1.658-.85.191-.808.531-.978.808-1.148.042-.212-.022-.297 0-.319.148-.106.212-.042.212-.063.128-.107.128-.234.149-.213l-.17-.042-.064-.107c.064-.319.128-.297.128-.319l.34-.063c.595-.447.318-.532.425-.574l-.298-.043v-.106l.234-.127h-.128c.255-.15.255-.064.277-.085.233.127.17.233.191.212.956-1.445.701-2.38.85-2.295h.106c.15-1.254-.276-2.104-.042-1.998l.446.17c-.127-.298-.064-.276-.064-.383.277-.403.723-.467.787-.51l.085.043-.064-.149c-.297-.085-.382-.127-.404-.149-.085-.489-.042-.467-.106-.552l-.234.106-.807-1.148c.701-1.169.977-1.169.913-1.381l.17.148h.107c1.063-.467 1.743-.998 1.743-1.53l-.064-.064c.042-.382.149-.318.191-.382 1.785.276.595-2.296.872-2.253.51-.255.446-.701.425-.808h-.107c-.361.34-.51.17-.616.255v-.063c.34-.702.723-.83.616-.808l-.063-.255c.297-.85.106-.68.17-.765l-.298-.234v-.106l.255-.106c.383.148.595.233.595.212.49-.319.447-.468.51-.468h-.106c2.572-2.805 2.253-5.185 2.295-6.95-.807-.552-1.509.17-1.487-.063-.34-1.084-.192-1.105-.17-1.17 1.02-.042 1.445-.212 1.466-.254.128-.34.106-.277.149-.404l.234-.106c.106-1.552-.107-1.17.425-1.87-.425-1.085-.319-1.595-.361-1.489.68-1.062.573-1.253.7-1.551l.511-.404.064-.34c-.362-.467-.66-.51-.595-.51l-.107-.234.064-.191c.276-.255.234-.191.298-.276-.085-1.106 1.679-1.063 1.594-1.87l.17.212c.064.446-.213.552-.17.595l.297-.17c.064-.616-.127-.808-.063-.871.34-.426.36-.893.34-.914h.106c0 .17.106.19.106.233l.191-.042c-.063-.531-.042-.425-.02-.616L-20.54 0l.255.149c-.022.319.085.382.042.382h-.149l-.085.085.234.277-.191.063c-.191.362-.149.553-.17.51.383-.233.468-.02.553 0-.638.213-.914.15-.85.17l-.064.68.085.15c.446.063.595.127.616.148l.085.17v.34l.128.192c.276-.128.19-.192.233-.192 0-.276-.127-.255-.106-.276.17 0 .191-.106.234-.106-.107-1.34.999-2.55.977-2.572l.234.064v.552c-.807.914-.425.723-.871 1.19-.043.532 0 .447 0 .638.149-.765.276-.595.446-.786-.064.34-.042.234-.106.34l.212.319c-.36.637-.467.85-.446.914.553-.468.361-.32.574-.447 0 .213-.085.213-.064.213.128.212.043.212.064.212-.34.34-.298.425-.34.447 1.105-.34.701-1.34.786-1.36.49.637.234.956.298.998-.255.34-.34.234-.34.277.234.722.467.659.489.786l-.15-.51.17-.361.277-.128.17.17c.404-.871.255-1.063.34-1.126l.234-.107.446-1.147h.34l.085.425c-.68 1.381-.488.999-.637 1.509h.106c.298-.489.765-.83.659-.83l.149.128c.191.68.063.68.085.83.297.297.34.212.361.254l-.085.32.128.105c.085.787-.383.83-.404 1.106 1.509.403.999-.914.892-1.17l.043-.19c.34-.383.616-.107.616-.17l.064.127-.085.127-.234.064c.128.064.213.106.234.106-.213.32 0 .383 0 .468.489-.935.383-.68.659-.935l.234.234h-.213l-.127.085c-.107.34 0 .361 0 .382.255-.085.318-.085.34-.106-.255.446-.34.425-.362.531v.277c.17-.107.255-.128.234-.128v-.149l.191-.19.043-.213h.128c.212 1.551-.32 1.083-.234 1.721 1.551-1.466.914-1.764 1.849-2.062h-.468c.447-.17.447-.042.532-.085l.127.15c.128.7-.106.7-.085.892l-.064.064h-.319c-.595.297-.51.17-.53.212-.235.702-.362 1.488-.213 1.594l-.383-.085c-.595.255-.638.638-.638.532.532 0 .404-.426.468-.447l.234.106.085.192-.043.212-.17.192c.425.085.404-.213.468-.234l.276.17c.106.595 0 .659.064.765l.191-.298c.043-.892-.149-1.19-.085-1.126.234-.425.468-.489.531-.51l.086.085c-.064.467-.234.425-.255.489.488-.277.425-.362.51-.362.637-1.232.956-1.7.722-2.04l.234-.149h.34l.276.255c.255 1.403.213 1.53.234 1.488-.212-.085-.17-.085-.234-.127-.382 1.105-1.36 1.02-1.381 1.253l.106.107c.213-.362.255-.255.276-.298h.15l.148.064c-.361.531-.319.871-.34.978-.425.212-.489.403-.489.403l.149.34c.191-.467.085-.425.106-.573l.574.233.191.383c-.34 1.764-.786 2.168.277 2.7.85-.256.616-.213.87-.383l-.084-.298c.595-.319.871-.34.808-.34l.106-.17c-.468-.956-.595-.956-.574-1.084.276-1.19.871-1.254.85-1.381h.404c.149-.957.319-.553.276-.702h.234l.17.362h.106l.064-.298c.51-.34.425-.255.616-.383l.17.128v.149l-.382.042h.425c.234-.574.213-.935.276-.914-.085 1.254.34.85.744.978l.213.043.17.297V7.8l-.425-.106.212.255c.553.085.425.021.49.042l.212.17v.107c-.702.297-.83.361-.893.446v.361h.085l.106-.297c.553 0 .723.276.702.191l-.064-.234c.319-.595.34-1.317.297-1.296l.107-.149h.34v-.149h-.128v-.127c.957-.362.914-.68 1.105-.914.468.297.255 1.148.277 1.041-1.02.447-1.276 1.573-1.02 1.956-.51 0-.51-.085-.532-.064l-.17.064c.702.425.574.743.638.765l-.32.127.256.043.106-.064c.192-.595.149-.404.128-.616l.064-.128.255-.149c.467.51.573.66.637.68l.298-.106-.298-.106-.064-.213c.192-.595.234-.425.234-.488h-.127c.085-.192.127-.32.127-.34.68.382.362.977.447 1.04.148-.403.106-.297.127-.445l.191.297c-.17.425-.34.51-.318.553.403.446.467.446.467.51-.34.297-.34.382-.34.361.446.34.468.298.489.34-.468.468-.404.319-.489.447-.17-.15-.404.063-.361 0 0 .17.149.233.127.233l.723-.403.106-.234-.127-.383c.701.34.574.255.85.319l.276-.106-.212.531c-1.127.871-1.594.914-1.51.935v.128C.097 12.37.054 12.37.31 12.178c.276.277.34.49.382.447l.468-.043c.701-.999.319-1.488.446-1.551l.914.446c-.956.404-.574 1.127-.786 1.445l-.256.043v.106c.51-.191.596-.255.638-.234l.149.064c.234.319.127.213.17.255l.085.043c.234-.277.17-.49.212-.49l.192-.084.127.085c.043.51-.212.531-.191.595l.106.106c.277-.361.362-.297.404-.383l.064-.19c.297.106.319.34.361.36-.956.83-1.105.702-1.148.915 1.02-.15 1.02-.192 1.148-.107.489.893.723 1.637.213 1.998-.744.106-.765-.064-.893-.064-.383.51-.999.404-.914.447.234 0 .298.085.319.106.85-.574 1.36-.149 1.7-.17v.17c-.807.85-.892.574-.977.68-.957 1.36-.83.935-.893 1.105l-.531-.085-.107.106c.574.17.638 0 .787 0l.148.17C1.564 19.702 1.032 19.787.65 19.681c.276.212.212.51.233.467-1.509-.68-1.254.234-1.806.34l-.383-.106.34.213C.841 19.936.267 20.276.48 20.17l.17.574h.127c.276-.617.553-.404.595-.49l.107.192c-.32.893-.957 1.552-1.02 1.998l.106.106c.127-.701 1.02-.935.85-.871l.064.127c-.128.85-.086.638-.064.935l.191.15c-.234-.468.191-.936.149-.915-.744-1.742 1.466-2.55 1.7-2.848h-.042c.02-.531 1.02-.999.807-.935l.595-.064c1.722.702 1.106 1.807 1.297 2.19.871.637-.064 2.104.042 1.997-1.19.49-1.53.128-1.828-.19-.276-.086-.276-.17-.34-.277-.658.212-.913.68-.998.829l.786-.49.276.043c.255 1.658-.361 1.786-.467 2.147-.404.106-.404 0-.51.043-.447.446-.34.765-.383.68-.68.212-1.148.489-1.148.51l-.063.255c1.381-.957 1.275-.51 1.636-1.212l.255-.042.106.106c-1.317 2.7-1.466 2.55-1.53 2.657l.106.17C1.585 29.776.99 31.265.905 32.348l.148.298c.85.148.85.127 1 .212l.042.425c-.808.723-.829.66-.914 1.02-.68.34-.638.936-.744 1.084-.744.362-.914.234-1.02.34l-.128.298c.043.787.447 1.063.468 1.19l-.574.234.574.085.127-.255c-.722-2.253 2.53-1.36 2.36-2.976.488-.297.722-.106.68-.17.871-1.721 1.105-1.169 1.658-1.657 1.402-1.382 1.02-2.508 1.168-3.295l.213-.19c-.106-.171-.213-.235-.234-.235.765-2.359.532-1.657.702-2.508.17.298.106.532.106.574h.106l-.276-1.891c.234-.277.191-.234.255-.34.51-.213.659.106.68.042.404.595.361.85.383.808.042-.617 0-.468-.043-.68l-.17-.128c.043-.489.085-.829.17-.85 2.827-.638 3.57-1.424 3.528-1.084l.17-.276h.34l.32.255.084.467c-.765-.233-1.02.043-1.063 0l-.085.213c.574.085.383.042.553.106.106.617.064.659.127.702 0-.383.15-.596.107-.574h.127c.425.871-.127 1.232-.127 1.381h-.277c-.765.553-.595.468-.977.701l.297.128c-.531 1.934-1.254 1.488-1.806 1.105.042.425.106.34.234.468-1.254.68-2.38 1.317-2.487 1.891l.319.277c.021-.702.149-.638.127-.702l.17-.106.277.234c-.192.361-.128.255-.234.361v.106l.234.234.127-.446c.213-.043.298.021.298 0l.042-.064c0-.51.17-.51.213-.637.425.382.637.488.595.467l-.106-.276.127-.149.531-.149-.042.319.234.489c-.298.68-.66.361-.744.68v.064c.17 0 .191-.085.191-.064.106.17.128.319.106.34.702-.659.49-.425.68-.701.107.042.128.106.128.106.616-.765.319-1.382.893-1.424l-.107.17v.106c.404-.085.298-.212.362-.212l.106.106c-.128.213.021.297 0 .34.064-.191.085-.17.106-.234.107.49-.297.68-.212.702l.255-.192c0-1.785.871-2.593 1.466-3.06h.085l.49.276V26.1l-.192-.15c.085-.913.531-.934.574-1.083.977 1.53.616 1.339.765 1.466l.064-.212c-.128-.447-.192-.638-.17-.659l.085-.213c.637-.318.488-.17.87-.34.702-.063 1.064-.573 1.255-.446l.106.085.128-.191v-.51l.233-.17.192.19c.234.957 0 .766.063.851l-.212.213v.127h.128v-.127h.106v.127h.127c0-.234.128-.361.107-.34.297.191.637.085.573.106l-.382-.276v-.425l.212-.361.404-.107c-.297.298-.34.617-.361.574.489-.382.467-.148.51-.233l.234.106.085.34.34-.149.659.234.276-.107-.106-.106h-.191l-.043-.148c.17-.51.255-.34.255-.426v.34c.298-.403.149-.425.191-.446-.17-.425-.361-.319-.319-.361l.32-.34.233.106c.255.808-.064.765.021.808h.234l.149.552.212.128-.127.234c.446-.043.404-.468.467-.468.32.659.17.51.234.574l.128-.128c.127-.616-.446-1.041-.34-.977.595-.085.829.17.786.085v-.107l-.276-.042c-.489-.404-.34-.617-.425-.659h.106l.085.149c.383.212.616.042.616.085-.701-.638-1.147-.638-1.041-.659l-.213-.383c.128-.595.32-.595.34-.701v-.128c6.61-.446 11.52 4.825 16.45 5.399.043.531-.063.446-.042.51l-.148.085-.277-.128.107.426c.595.318.956.488.913.51.49-.298.553-.32.596-.362.233.255.148.32.19.32 1.914.276 2.573.084 2.402.148l.17.128c.064.68-.233.7-.212.786l.489-.149.064.106-.085.383h.106c.127-.51.383-.468.468-.574.616.468 2.38-.212 2.061 0l-.042.064h-.022l-.042.042c.127.298.106.234.127.34l.255-.127c.85.064.532.106.787.064l.085-.213c1.126.425.829.51 1.211.446.277-.956.022-.977.064-1.062-.255.127-.212.085-.319.085-.765-.617-.892-.553-.956-.638l.085-.234c2.975-.17 2.486.085 3.167.107-.83.977-.468 1.912-.596 1.785-.17-.106-.255-.106-.233-.106.042 1.275.68 1.424.914 1.7l.042.319z"/></mask><path fill="#002B42" stroke="#596580" stroke-width="2" d="M49.28 31.838c-.468 1.19-1.212 2.465-1.85 2.55-.68 1.255-.404 1.148-.446 1.127l-.085.085c-.66-.064-.51.659-.617.701-1.466.702-2.125.574-2.104.765.17.255.361.277.298.277l.042.127c-1.636 2.38-1.679 1.956-2.019 2.338-1.636.361-2.189 0-2.805.51-.83-.106-1 .234-1.382.234-.34-.276-.276-.446-.361-.446h-.213c-.828 1.998-2.975 3.422-2.933 4.123.34 1.233.085 1.573.17 1.467-1.02 1.275-.871 2.507-1.849 2.699-1.466 2.571-3.677 4.144-3.55 5.993.49 1.19.426 1.297.575 1.382l.233-.128c2.253.935.872 4.485-.19 4.612.17 1 .424 1.084.34 1.233-.34.489-.383.723-.383.744l.106.297c3.167 3.358 2.465 8.757 0 10.946-1.977 2.55-1.148 2.168-2.614 2.933.234.744.191.829.085 1.148.234.319.212.297.234.34-.723 1.275-.15 2.7-.107 2.763-.85 1.424 1.17 2.36.234 2.975 1 1.467 2.466 2.742 3.57 3.082l.235.255v1.254l.085.128c.276.021.17.063.212.042l.043.213-.404.276c-.553 1.552-.106 1.297-.064 1.913l-.064.149c-.276.17-.234.127-.297.191-.043 3.953-3.04 5.27-5.377 4.208-2.785 1.17-4.187 1.998-5.888.447-.106-.34-.17-.51-.17-.51l-.127-.086c-.425.107-.298.064-.468.064l-.064-.127-.914-.51h.107c-2.615-.914-3.465.807-5.165.807a.6.6 0 0 0-.17-.297l-.191-.064c-.51.744-1.212.297-1.275.574-.234.807-.15.85-.234.914-.49-.362-.362-.234-.468-.34-.404.127-.297.255-.361.297.361.255.276.383.34.425l-.043.064c-.382 0-.318-.042-.36-.042l.084-.064c-.723.595-.595.51-.85.616-.128.531-.064.595-.106.638-.723.829-.978 1.36-1.51 1.36-.7 1.785-.297 1.169-.807 1.743-.999-.064-.829.127-1.084.234-2.678.467-3.38 2.444-4.123 3.103l-.106-.107c-1.297.553-.83 1.254-1.212 1.488l-.297.128c-.553-.51-.447-.383-.66-.553-.573.319-.934.085-1.062-.021-.956.659-.638.404-.893.85-.467.021-.36-.021-.403 0-.213.276-.085.404-.128.382l-.106.128c-5.377 1.828-10.223 2.487-10.457 6.95-.191.106-.191.085-.191.127.212.404-.064 1.084 0 .936l-.107-.128c-.02.68-.127.723-.106.85l.106.192v.106l-.127.127c.149.234.191.17.191.192l.043.127-.064.106-.191.107c0 2.848-1.743 3.91-2.21 5.908-1.319 1.318-.723 3.401-1 3.188l-.531.383v.127l.319.107-.043.148c-1.041 1.021-.786 1.892-1.53 1.934-.659.574-.298.532-.574.808h-.255c-.786.723-.489.808-.595.829l.043.446c-1.34 1.764.34 4.336.573 5.654v.106l-.106.085c-.34 3.847 3.443 3.252 1.275 5.781-.127 2.551-.233 3.528.107 4.081-1.17 1.828-.085 3.592-.49 3.826-.616.297-.467.233-.68.382-.02.786.064.914 0 1.02-.998 1.637-.743 1.105-.913 1.616.68.68-.15 2.252.127 2.337-12.603-4.909-6.673-6.461-11.286-9.16-3.081-1.403 2.53-2.997 1.233-4.569-7.927-3.21-3.252-6.823-8.969-8.374 3.826-3.826 3.06-12.136 9.84-10.351l.064-.085c-.446-.51-.977-1.084-.85-1.403 1.467-1.02.191-2.89 1.233-3.804-.085-.914-.319-1.892-.404-1.955-12.56-1.765-5.866 5.355-13.496-4.634-.085-.127-.042-.149-.042-.149.063-.127.085-.085.085-.106v-.106c-.426-.638-.277-.425-.468-.531l-.064.042-.042.064c.042.255 0 .276 0 .319l-.043.042h-.085c-.17-.085-.149-.106-.17-.106-.085-.744-.361-1.254-.446-1.275-.383-.043-.447-.064-.51-.107-.468-.871-1.934-2.486-2.89-2.061l-.277-.128c1.19-.956 1.615-.892 1.721-1.084l.234-.701-.17-.638c-.999-.914-1.7-.425-1.721-.574-.68.574-.85.659-.936.681-.446-1.616-1.679-1.446-1.615-1.935l.255-.531.66-.276.764.212c2.657-3.655 2.21-2.444 2.636-4.527-.638-1.381.085-2.444.106-2.593l-.213-.595c.68-2.486.66-2.699 1.36-3.677-.658-.85.362-1.721.128-1.594l-.17-.573c.787-1.53.51-1.36.616-1.956-2.21-4.038.553-6.248-1.849-8.225l.234-2.593c-4.824-5.993-10.074-4.484-14.58-7.12-3.804-.446-3.38 1.828-4.548 2.763-.213-.234-.213-.404-.213-.34-1.296-.468-1.657.999-1.7.786l-.34-.042c4.527-3.91 11.838-9.5 15.813-12.646.637.297.85-.191 1.126-.085 3.868.404 4.931-5.08 6.716-7.141l-.19-.362h.233c-.128-.829.319-1.169.34-1.275.234.213.383.234.34.234.042-.595.255-.468.276-.553l.17.085c3.571-2.699 3.55-4.633 3.805-7.311h.021c.191-.17.191-.255.213-.276-.064-.15-.085-.107-.085-.128v-.382l.106-.15c.446-.105.425-.084.467-.105v-.192c.32-.233.425-.212.468-.276.085-.446-.043-.404 0-.51l.212-.043-.042-.148c.149-.51.319-.66.276-.638-.255-.425-.042-.786-.063-.765.318-.234.233-.191.297-.319h.085c.765-.978 1.041-.68 1.658-.85.191-.808.531-.978.808-1.148.042-.212-.022-.297 0-.319.148-.106.212-.042.212-.063.128-.107.128-.234.149-.213l-.17-.042-.064-.107c.064-.319.128-.297.128-.319l.34-.063c.595-.447.318-.532.425-.574l-.298-.043v-.106l.234-.127h-.128c.255-.15.255-.064.277-.085.233.127.17.233.191.212.956-1.445.701-2.38.85-2.295h.106c.15-1.254-.276-2.104-.042-1.998l.446.17c-.127-.298-.064-.276-.064-.383.277-.403.723-.467.787-.51l.085.043-.064-.149c-.297-.085-.382-.127-.404-.149-.085-.489-.042-.467-.106-.552l-.234.106-.807-1.148c.701-1.169.977-1.169.913-1.381l.17.148h.107c1.063-.467 1.743-.998 1.743-1.53l-.064-.064c.042-.382.149-.318.191-.382 1.785.276.595-2.296.872-2.253.51-.255.446-.701.425-.808h-.107c-.361.34-.51.17-.616.255v-.063c.34-.702.723-.83.616-.808l-.063-.255c.297-.85.106-.68.17-.765l-.298-.234v-.106l.255-.106c.383.148.595.233.595.212.49-.319.447-.468.51-.468h-.106c2.572-2.805 2.253-5.185 2.295-6.95-.807-.552-1.509.17-1.487-.063-.34-1.084-.192-1.105-.17-1.17 1.02-.042 1.445-.212 1.466-.254.128-.34.106-.277.149-.404l.234-.106c.106-1.552-.107-1.17.425-1.87-.425-1.085-.319-1.595-.361-1.489.68-1.062.573-1.253.7-1.551l.511-.404.064-.34c-.362-.467-.66-.51-.595-.51l-.107-.234.064-.191c.276-.255.234-.191.298-.276-.085-1.106 1.679-1.063 1.594-1.87l.17.212c.064.446-.213.552-.17.595l.297-.17c.064-.616-.127-.808-.063-.871.34-.426.36-.893.34-.914h.106c0 .17.106.19.106.233l.191-.042c-.063-.531-.042-.425-.02-.616L-20.54 0l.255.149c-.022.319.085.382.042.382h-.149l-.085.085.234.277-.191.063c-.191.362-.149.553-.17.51.383-.233.468-.02.553 0-.638.213-.914.15-.85.17l-.064.68.085.15c.446.063.595.127.616.148l.085.17v.34l.128.192c.276-.128.19-.192.233-.192 0-.276-.127-.255-.106-.276.17 0 .191-.106.234-.106-.107-1.34.999-2.55.977-2.572l.234.064v.552c-.807.914-.425.723-.871 1.19-.043.532 0 .447 0 .638.149-.765.276-.595.446-.786-.064.34-.042.234-.106.34l.212.319c-.36.637-.467.85-.446.914.553-.468.361-.32.574-.447 0 .213-.085.213-.064.213.128.212.043.212.064.212-.34.34-.298.425-.34.447 1.105-.34.701-1.34.786-1.36.49.637.234.956.298.998-.255.34-.34.234-.34.277.234.722.467.659.489.786l-.15-.51.17-.361.277-.128.17.17c.404-.871.255-1.063.34-1.126l.234-.107.446-1.147h.34l.085.425c-.68 1.381-.488.999-.637 1.509h.106c.298-.489.765-.83.659-.83l.149.128c.191.68.063.68.085.83.297.297.34.212.361.254l-.085.32.128.105c.085.787-.383.83-.404 1.106 1.509.403.999-.914.892-1.17l.043-.19c.34-.383.616-.107.616-.17l.064.127-.085.127-.234.064c.128.064.213.106.234.106-.213.32 0 .383 0 .468.489-.935.383-.68.659-.935l.234.234h-.213l-.127.085c-.107.34 0 .361 0 .382.255-.085.318-.085.34-.106-.255.446-.34.425-.362.531v.277c.17-.107.255-.128.234-.128v-.149l.191-.19.043-.213h.128c.212 1.551-.32 1.083-.234 1.721 1.551-1.466.914-1.764 1.849-2.062h-.468c.447-.17.447-.042.532-.085l.127.15c.128.7-.106.7-.085.892l-.064.064h-.319c-.595.297-.51.17-.53.212-.235.702-.362 1.488-.213 1.594l-.383-.085c-.595.255-.638.638-.638.532.532 0 .404-.426.468-.447l.234.106.085.192-.043.212-.17.192c.425.085.404-.213.468-.234l.276.17c.106.595 0 .659.064.765l.191-.298c.043-.892-.149-1.19-.085-1.126.234-.425.468-.489.531-.51l.086.085c-.064.467-.234.425-.255.489.488-.277.425-.362.51-.362.637-1.232.956-1.7.722-2.04l.234-.149h.34l.276.255c.255 1.403.213 1.53.234 1.488-.212-.085-.17-.085-.234-.127-.382 1.105-1.36 1.02-1.381 1.253l.106.107c.213-.362.255-.255.276-.298h.15l.148.064c-.361.531-.319.871-.34.978-.425.212-.489.403-.489.403l.149.34c.191-.467.085-.425.106-.573l.574.233.191.383c-.34 1.764-.786 2.168.277 2.7.85-.256.616-.213.87-.383l-.084-.298c.595-.319.871-.34.808-.34l.106-.17c-.468-.956-.595-.956-.574-1.084.276-1.19.871-1.254.85-1.381h.404c.149-.957.319-.553.276-.702h.234l.17.362h.106l.064-.298c.51-.34.425-.255.616-.383l.17.128v.149l-.382.042h.425c.234-.574.213-.935.276-.914-.085 1.254.34.85.744.978l.213.043.17.297V7.8l-.425-.106.212.255c.553.085.425.021.49.042l.212.17v.107c-.702.297-.83.361-.893.446v.361h.085l.106-.297c.553 0 .723.276.702.191l-.064-.234c.319-.595.34-1.317.297-1.296l.107-.149h.34v-.149h-.128v-.127c.957-.362.914-.68 1.105-.914.468.297.255 1.148.277 1.041-1.02.447-1.276 1.573-1.02 1.956-.51 0-.51-.085-.532-.064l-.17.064c.702.425.574.743.638.765l-.32.127.256.043.106-.064c.192-.595.149-.404.128-.616l.064-.128.255-.149c.467.51.573.66.637.68l.298-.106-.298-.106-.064-.213c.192-.595.234-.425.234-.488h-.127c.085-.192.127-.32.127-.34.68.382.362.977.447 1.04.148-.403.106-.297.127-.445l.191.297c-.17.425-.34.51-.318.553.403.446.467.446.467.51-.34.297-.34.382-.34.361.446.34.468.298.489.34-.468.468-.404.319-.489.447-.17-.15-.404.063-.361 0 0 .17.149.233.127.233l.723-.403.106-.234-.127-.383c.701.34.574.255.85.319l.276-.106-.212.531c-1.127.871-1.594.914-1.51.935v.128C.097 12.37.054 12.37.31 12.178c.276.277.34.49.382.447l.468-.043c.701-.999.319-1.488.446-1.551l.914.446c-.956.404-.574 1.127-.786 1.445l-.256.043v.106c.51-.191.596-.255.638-.234l.149.064c.234.319.127.213.17.255l.085.043c.234-.277.17-.49.212-.49l.192-.084.127.085c.043.51-.212.531-.191.595l.106.106c.277-.361.362-.297.404-.383l.064-.19c.297.106.319.34.361.36-.956.83-1.105.702-1.148.915 1.02-.15 1.02-.192 1.148-.107.489.893.723 1.637.213 1.998-.744.106-.765-.064-.893-.064-.383.51-.999.404-.914.447.234 0 .298.085.319.106.85-.574 1.36-.149 1.7-.17v.17c-.807.85-.892.574-.977.68-.957 1.36-.83.935-.893 1.105l-.531-.085-.107.106c.574.17.638 0 .787 0l.148.17C1.564 19.702 1.032 19.787.65 19.681c.276.212.212.51.233.467-1.509-.68-1.254.234-1.806.34l-.383-.106.34.213C.841 19.936.267 20.276.48 20.17l.17.574h.127c.276-.617.553-.404.595-.49l.107.192c-.32.893-.957 1.552-1.02 1.998l.106.106c.127-.701 1.02-.935.85-.871l.064.127c-.128.85-.086.638-.064.935l.191.15c-.234-.468.191-.936.149-.915-.744-1.742 1.466-2.55 1.7-2.848h-.042c.02-.531 1.02-.999.807-.935l.595-.064c1.722.702 1.106 1.807 1.297 2.19.871.637-.064 2.104.042 1.997-1.19.49-1.53.128-1.828-.19-.276-.086-.276-.17-.34-.277-.658.212-.913.68-.998.829l.786-.49.276.043c.255 1.658-.361 1.786-.467 2.147-.404.106-.404 0-.51.043-.447.446-.34.765-.383.68-.68.212-1.148.489-1.148.51l-.063.255c1.381-.957 1.275-.51 1.636-1.212l.255-.042.106.106c-1.317 2.7-1.466 2.55-1.53 2.657l.106.17C1.585 29.776.99 31.265.905 32.348l.148.298c.85.148.85.127 1 .212l.042.425c-.808.723-.829.66-.914 1.02-.68.34-.638.936-.744 1.084-.744.362-.914.234-1.02.34l-.128.298c.043.787.447 1.063.468 1.19l-.574.234.574.085.127-.255c-.722-2.253 2.53-1.36 2.36-2.976.488-.297.722-.106.68-.17.871-1.721 1.105-1.169 1.658-1.657 1.402-1.382 1.02-2.508 1.168-3.295l.213-.19c-.106-.171-.213-.235-.234-.235.765-2.359.532-1.657.702-2.508.17.298.106.532.106.574h.106l-.276-1.891c.234-.277.191-.234.255-.34.51-.213.659.106.68.042.404.595.361.85.383.808.042-.617 0-.468-.043-.68l-.17-.128c.043-.489.085-.829.17-.85 2.827-.638 3.57-1.424 3.528-1.084l.17-.276h.34l.32.255.084.467c-.765-.233-1.02.043-1.063 0l-.085.213c.574.085.383.042.553.106.106.617.064.659.127.702 0-.383.15-.596.107-.574h.127c.425.871-.127 1.232-.127 1.381h-.277c-.765.553-.595.468-.977.701l.297.128c-.531 1.934-1.254 1.488-1.806 1.105.042.425.106.34.234.468-1.254.68-2.38 1.317-2.487 1.891l.319.277c.021-.702.149-.638.127-.702l.17-.106.277.234c-.192.361-.128.255-.234.361v.106l.234.234.127-.446c.213-.043.298.021.298 0l.042-.064c0-.51.17-.51.213-.637.425.382.637.488.595.467l-.106-.276.127-.149.531-.149-.042.319.234.489c-.298.68-.66.361-.744.68v.064c.17 0 .191-.085.191-.064.106.17.128.319.106.34.702-.659.49-.425.68-.701.107.042.128.106.128.106.616-.765.319-1.382.893-1.424l-.107.17v.106c.404-.085.298-.212.362-.212l.106.106c-.128.213.021.297 0 .34.064-.191.085-.17.106-.234.107.49-.297.68-.212.702l.255-.192c0-1.785.871-2.593 1.466-3.06h.085l.49.276V26.1l-.192-.15c.085-.913.531-.934.574-1.083.977 1.53.616 1.339.765 1.466l.064-.212c-.128-.447-.192-.638-.17-.659l.085-.213c.637-.318.488-.17.87-.34.702-.063 1.064-.573 1.255-.446l.106.085.128-.191v-.51l.233-.17.192.19c.234.957 0 .766.063.851l-.212.213v.127h.128v-.127h.106v.127h.127c0-.234.128-.361.107-.34.297.191.637.085.573.106l-.382-.276v-.425l.212-.361.404-.107c-.297.298-.34.617-.361.574.489-.382.467-.148.51-.233l.234.106.085.34.34-.149.659.234.276-.107-.106-.106h-.191l-.043-.148c.17-.51.255-.34.255-.426v.34c.298-.403.149-.425.191-.446-.17-.425-.361-.319-.319-.361l.32-.34.233.106c.255.808-.064.765.021.808h.234l.149.552.212.128-.127.234c.446-.043.404-.468.467-.468.32.659.17.51.234.574l.128-.128c.127-.616-.446-1.041-.34-.977.595-.085.829.17.786.085v-.107l-.276-.042c-.489-.404-.34-.617-.425-.659h.106l.085.149c.383.212.616.042.616.085-.701-.638-1.147-.638-1.041-.659l-.213-.383c.128-.595.32-.595.34-.701v-.128c6.61-.446 11.52 4.825 16.45 5.399.043.531-.063.446-.042.51l-.148.085-.277-.128.107.426c.595.318.956.488.913.51.49-.298.553-.32.596-.362.233.255.148.32.19.32 1.914.276 2.573.084 2.402.148l.17.128c.064.68-.233.7-.212.786l.489-.149.064.106-.085.383h.106c.127-.51.383-.468.468-.574.616.468 2.38-.212 2.061 0l-.042.064h-.022l-.042.042c.127.298.106.234.127.34l.255-.127c.85.064.532.106.787.064l.085-.213c1.126.425.829.51 1.211.446.277-.956.022-.977.064-1.062-.255.127-.212.085-.319.085-.765-.617-.892-.553-.956-.638l.085-.234c2.975-.17 2.486.085 3.167.107-.83.977-.468 1.912-.596 1.785-.17-.106-.255-.106-.233-.106.042 1.275.68 1.424.914 1.7l.042.319z" mask="url(#c)"/><path fill="#2FA625" stroke="#596580" d="M71.487 29.53c1.904.34 3.089.355 3.898.392.427.02.706.046.935.113.21.06.395.16.608.36l.218.205.283-.095.191-.063.188-.062.012-.026.189-.056.09-.028c2.944.57 4.173 1.777 5.516 2.8l-.152.244.491.246a1.8 1.8 0 0 0 .612.177l.05.003h.871l-.05-.09q.083.032.144.052c.1.031.202.055.317.056h.003c.936.947 1.87 1.562 2.665 1.931a5.6 5.6 0 0 0 1.12.393c.21.046.415.07.6.07.223.169.504.345.711.472q.218.132.321.197l.023.015-.006.012c1.045.795 1.689 1.157 2.183 1.445.472.275.782.465 1.223.925l.189.197.266-.051c.743-.142 1.241.21 1.607.692a3.8 3.8 0 0 1 .42.726q.072.163.117.277l.04.103c.005.011.031.078.07.135l.198.298.346-.092.071-.02c.313.234.672.416.946.534.15.065.285.116.39.15.776 1.028 1.916 1.723 2.937 2.176 1.079.48 2.084.714 2.526.784l.313.048.055-.082c1.696 2.311 3.6 4.793 5.523 6.842 1.041 1.11 2.096 2.103 3.135 2.875.952.708 1.913 1.244 2.854 1.508.461 1 .826 1.691 1.144 2.174.342.52.646.83.983 1.027.311.182.652.257.88.33.25.08.542.198.943.49l.226.165.259-.106q.175-.073.287-.134c1.339.52 2.134.802 2.673 1.042.403.18.596.31.725.461l.067.153.382.88c-6.148 1.167-9.013 5.586-11.187 10.057-1.138 2.342-2.061 4.635-3.191 6.63-1.054 1.86-2.236 3.354-3.811 4.24-.347-.281-.718-.427-1.108-.386-.482.05-.832.367-1.064.665-.238.305-.417.67-.546.967-.065.152-.121.293-.165.406l-.036.09-.268.149-.112.061-.068.108c-.461.72-.636 1.37-.763 1.924-.131.572-.2.958-.415 1.32l-.117.197.072.217.043.128.039.117.09.086c.244.233.539.298.795.286l.02-.003c-2.11 5.37-3.185 8.005-2.124 12.25l.047.191.165.107c.407.264.698.543 1.086.843.267.206.59.425.97.514.218.581.1 1.146-.174 1.648-.318.584-.818 1.019-1.103 1.174l-.383.207.153.407c.11.293.094.483.051.613-.047.142-.147.277-.305.425a4 4 0 0 1-.258.219c-.089.071-.195.153-.288.233-.161.139-.424.383-.478.74-.245.105-.422.239-.53.422a1.4 1.4 0 0 0-.585-.003c-.302.068-.517.24-.664.43a1.8 1.8 0 0 0-.269.526 1 1 0 0 0-.22.025c-.23.051-.423.166-.58.298-.3.254-.53.625-.704.944-.09.165-.175.334-.25.483l-.15.283a.54.54 0 0 0-.218-.163l-.148-.1-.229.073a3.8 3.8 0 0 0-.898.41c-3.446-5.491-8.057-7.262-12.582-7.723-2.296-.234-4.573-.133-6.647-.021-1.956.106-3.706.216-5.182.092-.729-2.142-.24-3.841.46-5.276.385-.789.784-1.41 1.145-2.087.33-.619.626-1.286.57-1.943l-.028-.324-.307-.105-.05-.031c-.057-.049-.135-.153-.216-.342a4 4 0 0 1-.11-.3c-.012-.034-.03-.093-.052-.14-.003-.007-.037-.092-.109-.167a.5.5 0 0 0-.37-.156h-.01c-1.656-.101-2.72-.667-3.45-1.473-.753-.83-1.195-1.96-1.503-3.252-.31-1.305-.463-2.67-.698-4.016-.22-1.256-.511-2.49-1.1-3.439a66 66 0 0 1-.255-3.857c-.048-1.146-.081-2.156-.172-3.024-.183-1.737-.612-3.05-1.99-3.96-.298-.231-.435-.463-.499-.675-.067-.223-.066-.466-.027-.733q.03-.198.076-.402c.029-.13.064-.278.088-.412s.045-.288.04-.442a.97.97 0 0 0-.163-.515l-.014-.018-.128-.176a3.6 3.6 0 0 1-.47-.87c-.037-.1-.089-.257-.136-.365a1.2 1.2 0 0 0-.194-.31c-.58-1.409-.937-2.706-1.228-3.915-.288-1.194-.522-2.344-.848-3.39-.04-1.01.48-1.74 1.147-2.432.17-.176.342-.343.517-.514.17-.167.344-.339.501-.511.305-.334.607-.734.699-1.212l.03-.156-.067-.146a301 301 0 0 0-1.92-4.104c-.584-1.232-1.108-2.333-1.568-3.34-.92-2.016-1.562-3.616-1.882-5.065-.316-1.434-.318-2.719.05-4.107.342-1.294 1.012-2.697 2.082-4.41l.21.14.186-.662c.179-.634.043-1.08-.15-1.396a2 2 0 0 0-.111-.164l.086-.188-.288-.206c1.06-.232 1.887.265 2.289.577l.136.105h.85l-.078-.568-.015-.087c.635.014 1.101-.027 1.482-.07.544-.063.805-.104 1.14-.03l.404.089.116-.273.066-.008.007.02.119.332h.609l.125-.083c1.073-.709 2.132-.811 3.099-.869.466-.028.962-.047 1.383-.143.344-.078.681-.217.957-.48Zm25.13 83.316.031.011-.044-.014zm25.189-52.878-.007.008.03-.05zM99.234 41.57c.132.056.248.099.331.127l-.277.303a.49.49 0 0 1-.054-.43Zm-7.994-5.383.335.205-.233.444a.4.4 0 0 1-.066-.065.5.5 0 0 1-.036-.584Z"/><path fill="#002B42" stroke="#596580" d="M113.522 142.292c1.173.341 1.583.543 1.811.689.2.129.396.327.886.549l.114.279.146.359.384-.053c.907-.124 1.266-.059 1.396-.018.053.017.072.03.115.056.011.007.069.044.148.071.795.785 1.448 1.23 2.059 1.444.606.212 1.122.175 1.596.098 1.478.437 2.209.816 2.678 1.183.24.188.424.382.613.606.174.206.401.5.644.775l.183.205.27-.043c.719-.114 1.28.212 1.771.619q.182.152.345.303c.106.096.219.197.324.28.098.078.235.176.392.228.165.054.38.062.579-.059a3 3 0 0 1 .322-.138c.258.213.338.518.354.914q.006.17.002.347c-.002.113-.005.24-.003.353.002.111.009.244.04.371a.8.8 0 0 0 .26.436l.074.061.092.029c.705.225.947.445 1.071.61.072.094.121.192.194.336a3 3 0 0 0 .297.499l.122.157.196.031c.639.102 1.072.34 1.411.561.15.097.35.24.495.325.151.088.386.207.664.18l.167-.015.124-.113a2 2 0 0 1 .395-.297c.664.596.739.932.744 1.127.003.134-.022.251-.059.452a1.9 1.9 0 0 0-.017.721l.03.149.106.106.17.171.151.15.212-.003c.677-.012 1.119-.097 1.398-.176l.104-.035c.151.082.232.225.28.406.021.079.031.156.038.222-6.256 1.678-9.428 6.281-11.574 9.848l-.06-.017-.13-.261h-.423l-.008-.019c-.016-.038-.021-.062-.023-.068l-.001-.006-.002-.007-.006-.023a.3.3 0 0 0-.042-.107.48.48 0 0 0-.295-.244c-.432-.218-.673-.322-.824-.369l-.075-.113h-.581l-.334.334-.037.108c-.151.435-.019.779.13 1.002.038.058.084.112.118.153v.359h.635l.043.102.064.148.081.19.193.078.212.085.089.035h.213l.013.02.016.027c-.023.255-.019.452.027.619-.178.108-.309.18-.406.229-.065.033-.167.082-.216.109a.8.8 0 0 0-.231.171l-.001-.001q-.105.112-.206.246l-.013-.012-.025-.293-.013-.154-.098-.12-.192-.234-.669-.818-.117.58-.653-.703-.183.974-.063.341-.037.197.07.108v.958l.016.017c-.16.102-.293.233-.4.369-.219.28-.363.621-.461.907l-.033.107-.219-.04.039-.037-.17-.17-.921-.92.067 1.3c.02.393.134.712.32.961.184.247.415.392.618.48q.12.052.227.082l-.02.068c-.371.343-.606.439-.728.473-.075.02-.12.024-.208.036-.036.005-.309.025-.477.261l-.035.046c-.629.246-.982.185-1.169.119-.127-.045-.211-.101-.321-.169-.032-.019-.143-.091-.272-.119a.56.56 0 0 0-.555.191l-.028.038a18 18 0 0 0-.4.574c-.532-.133-.902-.299-1.177-.475a2.7 2.7 0 0 1-.689-.637c-.354-.445-.726-1.136-1.587-1.573l-.242-.123-.235.138-.093.056c-.583-.156-.772-.32-.821-.397-.012-.019-.063-.096.104-.369l.055-.089.014-.104c.22-1.6-.515-2.823-1.311-3.854a30 30 0 0 0-.61-.755 29 29 0 0 1-.582-.72c-.368-.478-.665-.931-.84-1.398l-.021-.055-.034-.05-.179-.27c-.39-.607-.601-1.073-.689-1.424-.098-.39-.034-.589.045-.704.09-.131.277-.261.624-.361.342-.099.778-.152 1.283-.177.502-.025 1.042-.022 1.593-.022.543 0 1.097-.004 1.599-.043.495-.039.986-.116 1.384-.288.41-.178.78-.485.897-.994l.02-.086-.012-.089c-.137-1.069-.117-2.216-.052-3.4.063-1.165.171-2.396.197-3.549.05-2.289-.21-4.562-1.953-6.103l-.062-.076-.067-.085-.097-.049-.141-.077c-.686-.395-1.038-.973-1.248-1.501-.115-.286-.184-.547-.248-.772a3 3 0 0 0-.075-.239c.147-.263.266-.512.353-.709.057-.13.101-.24.132-.317l.035-.092.01-.025.002-.008.001-.002v-.002l.09-.252-.161-.215-.063-.085-.109-.144-.175-.042-.298-.08q-.057-.019-.098-.035.016-.224.175-.493c.073-.122.157-.232.232-.319Zm1.247 30.945h.017l.041.005a.495.495 0 0 1 .425.492l-.002.022a3 3 0 0 0-.151-.097l-.131-.071c-.246.143-.216.148-.213.148 0-.275.001-.398.002-.454l.007-.032-.008-.003.001-.011h.005zm10.061-1.181q-.083.17-.159.332c-.191.407-.312.683-.426.926l-.011.02-.126.029-.014-.057-.014-.037-.008-.017-.007-.014v-.001l-.068.033.001-.002.066-.032-.02-.041c.305-.5.532-.863.74-1.139l.045-.002zm.922-5.564-.065.006.048-.006zm14.097-9.06q.035.132.05.241-.183.045-.363.093l-.069-.022a.4.4 0 0 1 .046-.097c.014-.02.051-.073.116-.123a.5.5 0 0 1 .22-.092Z"/><mask id="d" fill="#fff"><path d="M124.064 174.438c-3.932 7.609-7.46 15.048-11.583 20.213-4.251 4.378-4.039 5.228-7.694 6.503l-.383-.085-.085-.212c.808-1.573.34-1.063.68-1.467l.192-.042.148.34c-.063-.723-.276-.787-.233-.914l.255-.51c-.17-.383-.234-.298-.277-.383 0-.319-.255-.382-.212-.425.149-1.063-.191-1.53-.085-1.381-.723.127-1.02-.34-1.105-.362l-.532.192-.34-.192c-.425-.829-.34-1.147-.382-1.084l-.128-.085c-.574.022-.616-.382-.637-.34 0-.446.085-.744.063-.722h-.106c-.786 1.211-.298 1.36-.489 1.827-.51.404-.404.851-.404.787l.213.212c-.914 1.743-.553 1.042-1.275 1.743h-.17c-.893-.425-1.02-2.189-.957-2.295.404-.489.595-.51.553-.532l-.234-.34h-.106l.085.277c-.638.425-.68.765-.787 1.041l-.212.085c.51.85.361.829.807.999l.107.17c-.213.808.637.893.68 1.063.319-.298.276-.234.404-.319h.106c.149.319.191.383.234.425.467-.34.914 0 .999 0-.659 1.573-1.318 3.273-2.763 3.358-.872 1.169 1.891 1.254 1.381 1.275l-.064.17c-1.955.766-2.635 2.147-2.678 2.955.32.68.213.552.277.807l-.17.128c-.702-.702-1.212-.106-1.254-.234.106-.34 0-.531 0-.595-.723 1.913-.404 1.636-.34 2.359-.765.51-.32 1.998-.404 1.87l-.128.255-.404.107v.106l.49-.043.148-.233c-.234-1.509.191-1.212.298-1.637l.361-.17.425.213c.213.552.255.616.319.765.255 1.764-.106 4.123.212 5.058l-.148.064c-1.17-.213-.723-1.445-1.53-1.7-.128.042-.107 0-.128 0l-.085-.489c-.34-.17-.744 0-.68-.064-.32.361-.234.489-.277.468l.086.127.467-.361c.298.34 0 .531 0 .574 1.658.701.893 1.169 1.403 1.424l.574.191.063.191-.085.192-.148.085c-.872.021-.83-.234-.978-.234l-.128.467c.17.553.17.765.192.723 1.169.404 1.254.999 1.147 1.615.32.51.234.404.255.702-1.041.297-.871.063-.998.106l-.234-.276-.277.297v.17l.17.234c-.382.276-.212.68-.233.701.276.362.467.298.488.362l.107.233h.106c-.531-.892-.383-.765-.489-1.126.83-.298 1.913-.765 1.785-.744-.063-.361 0-.489-.042-.51-.255-.106-.17-.17-.213-.17.085-.553.15-.489.107-.595-.128-.085-.085-.085-.107-.106l.064-.107c.191-.085.255-.042.255-.063l.043-.064c0-.489-.468-.34-.468-.425.106-.17.128-.255.128-.234l-.277.064-.042-.149c.212-.723.765-.659.914-.723l.106.149c0 4.74-.978 4.782-1.254 7.715l.106.234-.127.17c-.383 2.933-1.318 5.569-.744 6.801l.234.234.042.213c-.361.106-.276.148-.319.148v.192l.085.106c.362-.064.362-.064.426-.043.467 7.715.616 12.731 2.699 17.96-1.892 3.91-1.828 7.842-3.23 10.095-1.234 8.204-4.23 16.769-1.404 21.679-1.126 2.168-2.274 2.062-2.316 3.273-4.187.957-6.058 6.079-6.674 8.013-4.76-1.19-13.156-12.901-13.836-15.834-.298.085-.489.297-.616.17-.192-.532.595-.935.276-1.127l-.085-.042c-.701.021-.787.68-.914.829-1.063-1.764.786-8.693 1.7-9.416 7.227 1.764.68-5.696 5.632-6.121 3.231-4.569 3.295-2.656 4.294-6.291.34-.085.276-.149.319-.149.212-1.147-.957-1.785-1.19-2.529-2.168.192-2.338-2.316-3.954-1.806l-.064-.043c0-.319 0-.361-.042-.382-.468-.192-.425-.107-.531-.234-.404-1.275-3.996-.553-4.464-1.467-3.847-.489-7.715-2.72-11.455.128-1.36-.85-2.508-.68-2.764-.68-.53-2.338-.552-4.145-.637-4.272-3.146-2.997-5.696-5.144-7.396-6.674-2.55 1.233-4.697 1.764-6.291-.064-6.568-.616-9.884-5.951-14.58-7.672-7.737.595-17.535 4.569-12.498-5.463-1.998-1.02-3.953-1.19-5.696-1.168-.637-.171-1.232-.404-1.445-.659-.234.063-.276.255-.34.297-3.847-.382-8.246 3.72-10.032 4.527-7.247 6.249-13.985 8.736-20.743 12.561.616-2.72 2.168-4.484.85-6.525 6.482-8.416-8.672-16.28-3.21-24.123 2.742-2.869 2.87-3.273.595-4.357.383-6.057 3.762-3.209.532-5.759-4.017-1.765 1.381-5.888-.255-6.483-10.797-6.227 8.523-11.371-1.637-11.137-1.339-3.145 3.762-2.019 2.955-4.081-14.368-3.145-4.889-9.946-2.445-12.05-1.126-1.467-.34-1.233-1.211-1.637-.17-.149-.085-.17-.128-.17 21.594-20.871 11.35 14.474 29.5-2.508 8.885-.297 9.82-2.487 12.944-7.609 5.484-13.177-7.906-10.329 5.547-14.941 2.445 4.973 5.654-.978 7.184 2.253 3.443 2.486 6.079 1.551 8.97 1.041.212-.149.127-.531.17-.51 1.976-2.848 6.099-3.209 7.714-4.208 3.103.744 5.505-1.148 4.527-3.762 3.23-.255 5.484-2.04 6.313-4.825 4.527 0 4.867.999 7.481 1.913 1.084 8.353 6.185 6.228 2.806 10.585 1.147.021 3.039.914 3.655 0l.191-.596c1.297-.148 1.68-.807 1.743-.913l.298-.107c.807.425 1.084.213 1.317-.106.362-2.253.85-4.251 1.318-4.74 1.594-.425 1.297.702 2.274.553 3.23-1.466 4.506-2.189 3.656-4.612 1.977-.765 2.614-.51 3.464-.808l.15-.212c-.065-1.828-.298-1.722-.17-1.87 3.591-.914 4.994-2.87 6.758-1.658.68.765.552 1.317.616 1.19.553.319.404.659.51.786l.149.064c.956-.149.808.17 1.126.383 2.848.531 2.147.595 2.976 1.424 2.827-1.339 4.846 1.615 5.42 3.166l.318.064.277-.17c.064-1.636.51-2.21.744-2.38l.595-.17.722.297.319.468c-.319 1.19-.956 1.424-.786 1.403.467.637.51.999.51.914.637.34 1.126.552 1.19.573 1.169-.17 1.169-.744 1.488-.786.361.255.425.425.552.425.128.701-.425.808-.446 1.041l.128.256c.318 4.357 2.274 5.972 4.93 6.546 0 .701.256.722.256.829-.638.552-.851 1.317-.723 1.7.446.319.701.17.744.276l.064.085c-.404.935-.404.999-.638 1.318 1.063 2.444 1.084 2.869 2.062 3.039l.085.106c7.991 22.869-10.925 9.118-4.804 17.45 1.254 2.571 3.741 4.251 3.316 6.482-.978 1.233 1.105 1.339 1.169 1.552h.106c.213-.192.191-.107.213-.149 1.254 1.063 2.359 2.614 3.719 2.763h.149c.467-.404.595-.872.616-.808 1.934.872 2.381-.297 2.529-.064 1.127.171 1.509-.765 1.786-.998l.276-.085z"/></mask><path fill="#002B42" stroke="#596580" stroke-width="2" d="M124.064 174.438c-3.932 7.609-7.46 15.048-11.583 20.213-4.251 4.378-4.039 5.228-7.694 6.503l-.383-.085-.085-.212c.808-1.573.34-1.063.68-1.467l.192-.042.148.34c-.063-.723-.276-.787-.233-.914l.255-.51c-.17-.383-.234-.298-.277-.383 0-.319-.255-.382-.212-.425.149-1.063-.191-1.53-.085-1.381-.723.127-1.02-.34-1.105-.362l-.532.192-.34-.192c-.425-.829-.34-1.147-.382-1.084l-.128-.085c-.574.022-.616-.382-.637-.34 0-.446.085-.744.063-.722h-.106c-.786 1.211-.298 1.36-.489 1.827-.51.404-.404.851-.404.787l.213.212c-.914 1.743-.553 1.042-1.275 1.743h-.17c-.893-.425-1.02-2.189-.957-2.295.404-.489.595-.51.553-.532l-.234-.34h-.106l.085.277c-.638.425-.68.765-.787 1.041l-.212.085c.51.85.361.829.807.999l.107.17c-.213.808.637.893.68 1.063.319-.298.276-.234.404-.319h.106c.149.319.191.383.234.425.467-.34.914 0 .999 0-.659 1.573-1.318 3.273-2.763 3.358-.872 1.169 1.891 1.254 1.381 1.275l-.064.17c-1.955.766-2.635 2.147-2.678 2.955.32.68.213.552.277.807l-.17.128c-.702-.702-1.212-.106-1.254-.234.106-.34 0-.531 0-.595-.723 1.913-.404 1.636-.34 2.359-.765.51-.32 1.998-.404 1.87l-.128.255-.404.107v.106l.49-.043.148-.233c-.234-1.509.191-1.212.298-1.637l.361-.17.425.213c.213.552.255.616.319.765.255 1.764-.106 4.123.212 5.058l-.148.064c-1.17-.213-.723-1.445-1.53-1.7-.128.042-.107 0-.128 0l-.085-.489c-.34-.17-.744 0-.68-.064-.32.361-.234.489-.277.468l.086.127.467-.361c.298.34 0 .531 0 .574 1.658.701.893 1.169 1.403 1.424l.574.191.063.191-.085.192-.148.085c-.872.021-.83-.234-.978-.234l-.128.467c.17.553.17.765.192.723 1.169.404 1.254.999 1.147 1.615.32.51.234.404.255.702-1.041.297-.871.063-.998.106l-.234-.276-.277.297v.17l.17.234c-.382.276-.212.68-.233.701.276.362.467.298.488.362l.107.233h.106c-.531-.892-.383-.765-.489-1.126.83-.298 1.913-.765 1.785-.744-.063-.361 0-.489-.042-.51-.255-.106-.17-.17-.213-.17.085-.553.15-.489.107-.595-.128-.085-.085-.085-.107-.106l.064-.107c.191-.085.255-.042.255-.063l.043-.064c0-.489-.468-.34-.468-.425.106-.17.128-.255.128-.234l-.277.064-.042-.149c.212-.723.765-.659.914-.723l.106.149c0 4.74-.978 4.782-1.254 7.715l.106.234-.127.17c-.383 2.933-1.318 5.569-.744 6.801l.234.234.042.213c-.361.106-.276.148-.319.148v.192l.085.106c.362-.064.362-.064.426-.043.467 7.715.616 12.731 2.699 17.96-1.892 3.91-1.828 7.842-3.23 10.095-1.234 8.204-4.23 16.769-1.404 21.679-1.126 2.168-2.274 2.062-2.316 3.273-4.187.957-6.058 6.079-6.674 8.013-4.76-1.19-13.156-12.901-13.836-15.834-.298.085-.489.297-.616.17-.192-.532.595-.935.276-1.127l-.085-.042c-.701.021-.787.68-.914.829-1.063-1.764.786-8.693 1.7-9.416 7.227 1.764.68-5.696 5.632-6.121 3.231-4.569 3.295-2.656 4.294-6.291.34-.085.276-.149.319-.149.212-1.147-.957-1.785-1.19-2.529-2.168.192-2.338-2.316-3.954-1.806l-.064-.043c0-.319 0-.361-.042-.382-.468-.192-.425-.107-.531-.234-.404-1.275-3.996-.553-4.464-1.467-3.847-.489-7.715-2.72-11.455.128-1.36-.85-2.508-.68-2.764-.68-.53-2.338-.552-4.145-.637-4.272-3.146-2.997-5.696-5.144-7.396-6.674-2.55 1.233-4.697 1.764-6.291-.064-6.568-.616-9.884-5.951-14.58-7.672-7.737.595-17.535 4.569-12.498-5.463-1.998-1.02-3.953-1.19-5.696-1.168-.637-.171-1.232-.404-1.445-.659-.234.063-.276.255-.34.297-3.847-.382-8.246 3.72-10.032 4.527-7.247 6.249-13.985 8.736-20.743 12.561.616-2.72 2.168-4.484.85-6.525 6.482-8.416-8.672-16.28-3.21-24.123 2.742-2.869 2.87-3.273.595-4.357.383-6.057 3.762-3.209.532-5.759-4.017-1.765 1.381-5.888-.255-6.483-10.797-6.227 8.523-11.371-1.637-11.137-1.339-3.145 3.762-2.019 2.955-4.081-14.368-3.145-4.889-9.946-2.445-12.05-1.126-1.467-.34-1.233-1.211-1.637-.17-.149-.085-.17-.128-.17 21.594-20.871 11.35 14.474 29.5-2.508 8.885-.297 9.82-2.487 12.944-7.609 5.484-13.177-7.906-10.329 5.547-14.941 2.445 4.973 5.654-.978 7.184 2.253 3.443 2.486 6.079 1.551 8.97 1.041.212-.149.127-.531.17-.51 1.976-2.848 6.099-3.209 7.714-4.208 3.103.744 5.505-1.148 4.527-3.762 3.23-.255 5.484-2.04 6.313-4.825 4.527 0 4.867.999 7.481 1.913 1.084 8.353 6.185 6.228 2.806 10.585 1.147.021 3.039.914 3.655 0l.191-.596c1.297-.148 1.68-.807 1.743-.913l.298-.107c.807.425 1.084.213 1.317-.106.362-2.253.85-4.251 1.318-4.74 1.594-.425 1.297.702 2.274.553 3.23-1.466 4.506-2.189 3.656-4.612 1.977-.765 2.614-.51 3.464-.808l.15-.212c-.065-1.828-.298-1.722-.17-1.87 3.591-.914 4.994-2.87 6.758-1.658.68.765.552 1.317.616 1.19.553.319.404.659.51.786l.149.064c.956-.149.808.17 1.126.383 2.848.531 2.147.595 2.976 1.424 2.827-1.339 4.846 1.615 5.42 3.166l.318.064.277-.17c.064-1.636.51-2.21.744-2.38l.595-.17.722.297.319.468c-.319 1.19-.956 1.424-.786 1.403.467.637.51.999.51.914.637.34 1.126.552 1.19.573 1.169-.17 1.169-.744 1.488-.786.361.255.425.425.552.425.128.701-.425.808-.446 1.041l.128.256c.318 4.357 2.274 5.972 4.93 6.546 0 .701.256.722.256.829-.638.552-.851 1.317-.723 1.7.446.319.701.17.744.276l.064.085c-.404.935-.404.999-.638 1.318 1.063 2.444 1.084 2.869 2.062 3.039l.085.106c7.991 22.869-10.925 9.118-4.804 17.45 1.254 2.571 3.741 4.251 3.316 6.482-.978 1.233 1.105 1.339 1.169 1.552h.106c.213-.192.191-.107.213-.149 1.254 1.063 2.359 2.614 3.719 2.763h.149c.467-.404.595-.872.616-.808 1.934.872 2.381-.297 2.529-.064 1.127.171 1.509-.765 1.786-.998l.276-.085z" mask="url(#d)"/><path fill="#002B42" d="M161.173 131.4c-.255-.638-3.635.318-5.42-1.339-1.148-.595-3.528 2.231-5.42.977.022-.021-.063 0-.021-.276l-.064-.106c-.68.127-1.105-.192-2.869.616l-.191-.064-.192-.212c-.148-.213-.871.637-2.104 1.339-.042.064.064.276.149.531.085.553-1.594.298-2.571 2.359l-1.361.999c-2.571 2.041-7.29-.489-9.946 2.614-2.806-1.424-6.589-3.655-9.735-6.95-1.87.362-2.55 1.212-3.995-1.424-.064.085-.128-.148-.851.596-.191 3.57-4.165 4.102-7.162 7.375.297 1.424 1.934 1.912 3.741 2.486-.192 1.275 1.466.935 3.485 2.253l.192.468c.17.021.106-.362 1.955.127.17.085 1.743 2.062 3.464 1.509.447.383 3.061.553 4.272 2.742 1.169-.276 1.105.234 3.252 1.424.064 0-.021-.064.659-.234.701.723.574-.127.871 2.572.255.191 1.424.404 1.807 1.615.574.043.999.404 2.444 1.063.234 0-.106-.17.744-.446l.234.063c.042.149 1.487 1.212.914 2.657l.17.17c.425-.042.318.085 1.551-.234.425.255.553.107.957 1.573 1.53-1.785 1.806-3.613 5.292-6.886 1.721-.978 2.571-3.465 4.888-6.313l-.127.171c-.255.063-.085.063-.808.17 0 .042-.064-.085-.064.233l-.064.085c-.382.319-.34-1.594-1.721-2.529l.361-.191c0 .106.106-.213.617.425l-.043.234.531.807c.043.17-.127.107.319.808.191-.042.085-.234 1.063-.935.042-.213.234-.531-.298-1.382l.213-.212c.404.212.34-.021.892.956l-.042.298s-.043-.085-.489.68c.128-.149.617-.425 1.382-.468.042.085-.022-.403.637-1.615 1.531-.149 2.083-3.082 4.06-4.399v.106c1.785-1.743 2.21-3.082 4.463-6.908z"/><path fill="#002B42" stroke="#596580" stroke-linecap="round" stroke-linejoin="round" stroke-width="1.063" d="M161.173 131.4c-.255-.638-3.635.318-5.42-1.339-1.148-.595-3.528 2.231-5.42.977.022-.021-.063 0-.021-.276l-.064-.106c-.68.127-1.105-.192-2.869.616l-.191-.064-.192-.212c-.148-.213-.871.637-2.104 1.339-.042.064.064.276.149.531.085.553-1.594.298-2.571 2.359l-1.361.999c-2.571 2.041-7.29-.489-9.946 2.614-2.806-1.424-6.589-3.655-9.735-6.95-1.87.362-2.55 1.212-3.995-1.424-.064.085-.128-.148-.851.596-.191 3.57-4.165 4.102-7.162 7.375.297 1.424 1.934 1.912 3.741 2.486-.192 1.275 1.466.935 3.485 2.253l.192.468c.17.021.106-.362 1.955.127.17.085 1.743 2.062 3.464 1.509.447.383 3.061.553 4.272 2.742 1.169-.276 1.105.234 3.252 1.424.064 0-.021-.064.659-.234.701.723.574-.127.871 2.572.255.191 1.424.404 1.807 1.615.574.043.999.404 2.444 1.063.234 0-.106-.17.744-.446l.234.063c.042.149 1.487 1.212.914 2.657l.17.17c.425-.042.318.085 1.551-.234.425.255.553.107.957 1.573 1.53-1.785 1.806-3.613 5.292-6.886 1.721-.978 2.571-3.465 4.888-6.313l-.127.171c-.255.063-.085.063-.808.17 0 .042-.064-.085-.064.233l-.064.085c-.382.319-.34-1.594-1.721-2.529l.361-.191c0 .106.106-.213.617.425l-.043.234.531.807c.043.17-.127.107.319.808.191-.042.085-.234 1.063-.935.042-.213.234-.531-.298-1.382l.213-.212c.404.212.34-.021.892.956l-.042.298s-.043-.085-.489.68c.128-.149.617-.425 1.382-.468.042.085-.022-.403.637-1.615 1.531-.149 2.083-3.082 4.06-4.399v.106c1.785-1.743 2.21-3.082 4.463-6.908z"/></svg>